<svg xmlns="http://www.w3.org/2000/svg" width="381.136" height="289.501" viewBox="0 0 381.136 289.501">
    <defs>
        <style>
            .prefix__cls-2{fill:#3f3d56}.prefix__cls-3{fill:#6c63ff}.prefix__cls-4{fill:#7a81ea}.prefix__cls-6{fill:#2f2e41}.prefix__cls-7{fill:#ffb8b8}.prefix__cls-8{fill:#d0cde1}.prefix__cls-10{fill:#a0616a}.prefix__cls-14{fill:#444584}
        </style>
    </defs>
    <g id="prefix__Group_747" data-name="Group 747" transform="translate(-110 -620)">
        <g id="prefix__Group_745" data-name="Group 745" transform="translate(110 620)">
            <path id="prefix__Rectangle_1891" fill="#e6e8ec" d="M0 0H179.409V230.727H0z" data-name="Rectangle 1891" transform="translate(109.877 8.799)"/>
            <path id="prefix__Rectangle_1892" d="M0 0H91.594V1.029H0z" class="prefix__cls-2" data-name="Rectangle 1892" transform="translate(151.979 50.565)"/>
            <path id="prefix__Rectangle_1893" d="M0 0H91.594V1.029H0z" class="prefix__cls-2" data-name="Rectangle 1893" transform="translate(151.979 57.768)"/>
            <path id="prefix__Rectangle_1894" d="M0 0H91.594V1.029H0z" class="prefix__cls-2" data-name="Rectangle 1894" transform="translate(151.979 64.973)"/>
            <path id="prefix__Rectangle_1895" d="M0 0H91.594V1.029H0z" class="prefix__cls-3" data-name="Rectangle 1895" transform="translate(151.979 104.215)"/>
            <path id="prefix__Rectangle_1896" d="M0 0H91.594V1.029H0z" class="prefix__cls-3" data-name="Rectangle 1896" transform="translate(151.979 111.419)"/>
            <path id="prefix__Rectangle_1897" d="M0 0H91.594V1.029H0z" class="prefix__cls-2" data-name="Rectangle 1897" transform="translate(151.979 118.624)"/>
            <path id="prefix__Rectangle_1898" d="M0 0H91.594V1.029H0z" class="prefix__cls-2" data-name="Rectangle 1898" transform="translate(151.979 136.835)"/>
            <path id="prefix__Rectangle_1899" d="M0 0H91.594V1.029H0z" class="prefix__cls-2" data-name="Rectangle 1899" transform="translate(151.979 144.039)"/>
            <path id="prefix__Rectangle_1900" d="M0 0H91.594V1.029H0z" class="prefix__cls-2" data-name="Rectangle 1900" transform="translate(151.979 151.243)"/>
            <path id="prefix__Rectangle_1901" d="M0 0H91.594V1.029H0z" class="prefix__cls-2" data-name="Rectangle 1901" transform="translate(151.979 169.455)"/>
            <path id="prefix__Rectangle_1902" d="M0 0H91.594V1.029H0z" class="prefix__cls-3" data-name="Rectangle 1902" transform="translate(151.979 176.659)"/>
            <path id="prefix__Rectangle_1903" d="M0 0H91.594V1.029H0z" class="prefix__cls-2" data-name="Rectangle 1903" transform="translate(151.979 183.863)"/>
            <path id="prefix__Rectangle_1904" d="M0 0H91.594V1.029H0z" class="prefix__cls-2" data-name="Rectangle 1904" transform="translate(151.979 202.075)"/>
            <path id="prefix__Rectangle_1905" d="M0 0H91.594V1.029H0z" class="prefix__cls-2" data-name="Rectangle 1905" transform="translate(151.979 209.279)"/>
            <path id="prefix__Rectangle_1906" d="M0 0H91.594V1.029H0z" class="prefix__cls-2" data-name="Rectangle 1906" transform="translate(151.979 216.483)"/>
            <path id="prefix__Path_4427" d="M603.214 368.987H410.5V112.75h192.714zm-191.856-.858h191V113.608h-191z" class="prefix__cls-2" data-name="Path 4427" transform="translate(-301.267 -112.75)"/>
            <path id="prefix__Path_4428" d="M752.567 151.83a5.572 5.572 0 0 1 2.789-4.83 5.58 5.58 0 1 0 0 9.654 5.573 5.573 0 0 1-2.789-4.824z" class="prefix__cls-2" data-name="Path 4428" transform="translate(-493.326 -131.872)"/>
            <path id="prefix__Path_4429" d="M769.567 151.83a5.572 5.572 0 0 1 2.789-4.83 5.58 5.58 0 1 0 0 9.654 5.573 5.573 0 0 1-2.789-4.824z" class="prefix__cls-4" data-name="Path 4429" transform="translate(-503.029 -131.872)"/>
            <circle id="prefix__Ellipse_1076" cx="5.58" cy="5.58" r="5.58" class="prefix__cls-2" data-name="Ellipse 1076" transform="translate(268.255 14.378)"/>
            <path id="prefix__Path_4430" d="M757.431 667.313l-.461-.173c-.1-.038-10.176-3.9-14.9-12.65s-2.409-19.291-2.385-19.4l.109-.48.46.173c.1.038 10.176 3.9 14.9 12.65s2.409 19.291 2.385 19.4zm-14.6-13.23c3.99 7.4 11.951 11.193 13.969 12.059.384-2.162 1.586-10.9-2.4-18.3s-11.951-11.191-13.969-12.059c-.384 2.163-1.586 10.9 2.4 18.3z" class="prefix__cls-2" data-name="Path 4430" transform="translate(-488.831 -410.626)"/>
            <path id="prefix__Path_4431" d="M729.207 669.02c8.481 5.1 11.748 15.238 11.748 15.238s-10.485 1.862-18.966-3.24-11.748-15.238-11.748-15.238 10.484-1.863 18.966 3.24z" class="prefix__cls-4" data-name="Path 4431" transform="translate(-472.356 -428.226)"/>
            <path id="prefix__Path_4432" fill="#00c2cd" d="M371.708 211.6a46.381 46.381 0 0 1-24.417 40.843c-.563.305-1.125.593-1.7.867a46.425 46.425 0 0 1-40.629-.073q-1.635-.8-3.193-1.725c-1.056-.618-2.082-1.283-3.077-1.987a46.362 46.362 0 0 1 5.739-79.3 45.579 45.579 0 0 1 8.842-3.391q2.022-.547 4.112-.91a46.4 46.4 0 0 1 7.966-.682c.549 0 1.094.009 1.64.034q.6.013 1.2.051a46.1 46.1 0 0 1 12.245 2.425c.339.116.678.236 1.013.361q1.751.644 3.425 1.434a46.345 46.345 0 0 1 26.834 42.053z" data-name="Path 4432" transform="translate(-226.207 -142.717)"/>
            <path id="prefix__Path_4433" d="M368.694 146.757c-4.217-9.951-14.953-11.83-14.953-11.83s-10.341-2.758-18.969 10.373c-8.046 12.241-18.422 23.71-5.263 28.6l3.476-7.3.417 8.4a53.577 53.577 0 0 0 5.793.879c14.6 1.483 28.355 3.948 28.609-1.327.338-7.013 4.948-18.221.89-27.795z" class="prefix__cls-6" data-name="Path 4433" transform="translate(-251.454 -125.271)"/>
            <path id="prefix__Path_4434" d="M332.156 349.882l-.343 2.755-.652 5.185q-1.635-.8-3.193-1.725c-1.056-.618-2.082-1.283-3.077-1.987l.1-2.674.116-2.966 4.764.957z" class="prefix__cls-7" data-name="Path 4434" transform="translate(-252.401 -247.297)"/>
            <path id="prefix__Path_4435" d="M440.359 347.081a46.4 46.4 0 0 1-6.636 4.335l-2.249-7.79-.3-1.026-.738-2.562.794-.124 8.129-1.283.262 2.21z" class="prefix__cls-7" data-name="Path 4435" transform="translate(-312.648 -241.681)"/>
            <circle id="prefix__Ellipse_1077" cx="12.679" cy="12.679" r="12.679" class="prefix__cls-7" data-name="Ellipse 1077" transform="translate(89.615 16.647)"/>
            <path id="prefix__Path_4436" d="M371.183 192.564s.939 15.966-1.878 16.905 14.557 0 14.557 0-2.348-9.862 0-12.679-12.679-4.226-12.679-4.226z" class="prefix__cls-7" data-name="Path 4436" transform="translate(-277.576 -158.307)"/>
            <path id="prefix__Path_4437" d="M372.955 225.379s-12.209-.939-14.557 0-8.922 5.635-8.922 5.635l3.287 29.585 26.767 5.635 4.226-6.1 4.226-8.922-1.878-11.27-.47-6.574z" class="prefix__cls-8" data-name="Path 4437" transform="translate(-266.434 -176.799)"/>
            <path id="prefix__Path_4438" d="M332.138 243.44s-6.1 1.409-6.574 6.1-.47 16.436 0 18.314 0 2.818-.47 3.287-1.409-.47-.47.939.939 1.409.47 2.818-1.878-.47-.939 1.878 1.409 2.818.939 3.287-1.878 11.27-1.878 11.27l7.983 1.409 7.983-27.706z" class="prefix__cls-8" data-name="Path 4438" transform="translate(-251.446 -187.347)"/>
            <path id="prefix__Path_4439" d="M424.972 243.44a5 5 0 0 1 4.226 2.818c1.409 2.818 5.165 21.132 4.7 22.541s-1.409-.47-.47 2.348 0 2.348.47 4.226-1.878 0 0 1.878 2.818 2.348 1.878 3.287-2.348-.939-.939.939a8.962 8.962 0 0 1 1.409 4.7l-11.27 2.348-3.287-26.3z" class="prefix__cls-8" data-name="Path 4439" transform="translate(-307.651 -187.347)"/>
            <path id="prefix__Path_4440" d="M375.32 286.489l.562 8.653a46.425 46.425 0 0 1-40.629-.073q-1.635-.8-3.193-1.725c.361-1.326.725-2.648 1.1-3.944q.4-1.384.807-2.725c2.107-6.9 4.378-12.765 6.507-15.044 0 0 0-5.163.94-5.635a3.1 3.1 0 0 0 1-1.365 18.309 18.309 0 0 0 .884-2.391l-1.554-3.614-6.953-16.19a1.978 1.978 0 0 1 .931-2.545l2.3-1.155a1.979 1.979 0 0 1 2.657.9l10.6 21.662 11.739 7.515 8.232-3.661.219-.1s6.108-9.391 4.228-14.087c-.8-2-1.687-4.683-2.447-7.1-.442-1.425-.837-2.76-1.146-3.807a.845.845 0 0 1 1.279-.94l1.6 1.069a2.328 2.328 0 0 1 .828.983 2.114 2.114 0 0 1 .163.489l3.477 16.821-4.7 9.859v9.391l.326 5.043.172 2.64z" class="prefix__cls-6" data-name="Path 4440" transform="translate(-256.494 -184.544)"/>
            <path id="prefix__Path_4441" d="M229.444 34.142l-10.759-5.635-14.857 2.305-3.074 13.577 7.652-.294 2.138-4.988v4.906l3.531-.136 2.049-7.941 1.281 8.453 12.552-.256z" class="prefix__cls-6" data-name="Path 4441" transform="translate(-114.589 -16.272)"/>
            <ellipse id="prefix__Ellipse_1078" cx="1.409" cy="2.465" class="prefix__cls-7" data-name="Ellipse 1078" rx="1.409" ry="2.465" transform="translate(87.972 26.861)"/>
            <path id="prefix__Path_4442" fill="#ffbd5c" d="M893.25 391.274c0 20.573-13.9 37.985-33.048 43.811a47.1 47.1 0 0 1-8.67 1.785 48.337 48.337 0 0 1-5.406.3c-.672 0-1.339-.013-2-.047h-.011a47.751 47.751 0 0 1-19.382-4.947 47.207 47.207 0 0 1-11.571-8.109A45.162 45.162 0 0 1 799 391.274c0-19.451 12.422-36.077 29.963-42.757a46.9 46.9 0 0 1 6.445-1.946 48.563 48.563 0 0 1 24.43.786c.6.17 1.2.361 1.789.565h.013a44.537 44.537 0 0 1 4.171 1.64c.467.2.934.421 1.392.65q1.374.663 2.7 1.424c.34.191.676.387 1.008.591a46.815 46.815 0 0 1 13.81 12.7 45.075 45.075 0 0 1 7.2 15.486 44.6 44.6 0 0 1 1.333 10.858z" data-name="Path 4442" transform="translate(-523.02 -245.531)"/>
            <path id="prefix__Path_4443" d="M969.863 266.708l6.451-1.959.557-5.534s-15.69-5.773-20.706 4.438a16.339 16.339 0 0 1-6.15 7.063 11.607 11.607 0 0 1-9.868.828c-10.874-3.868-13.435 7.132-13.435 7.132s.94 1.566 7.643 1.951c3.336.192 6.065 2.637 7.966 5.045a8.411 8.411 0 0 0 14.482-2.523l.1-.3c3.206-10.231 17.8-2.085 17.8-2.085l.932-9.267z" class="prefix__cls-6" data-name="Path 4443" transform="translate(-595.916 -195.423)"/>
            <ellipse id="prefix__Ellipse_1079" cx="7.901" cy="7.696" class="prefix__cls-6" data-name="Ellipse 1079" rx="7.901" ry="7.696" transform="translate(322.092 80.936)"/>
            <ellipse id="prefix__Ellipse_1080" cx="21.07" cy="20.522" class="prefix__cls-6" data-name="Ellipse 1080" rx="21.07" ry="20.522" transform="translate(304.973 88.632)"/>
            <ellipse id="prefix__Ellipse_1081" cx="14.485" cy="14.109" class="prefix__cls-10" data-name="Ellipse 1081" rx="14.485" ry="14.109" transform="translate(310.899 102.527)"/>
            <path id="prefix__Path_4444" d="M900.81 407.124l2.634 13.681 13.169-1.71s-2.195-10.688-.878-13.681z" class="prefix__cls-10" data-name="Path 4444" transform="translate(-581.132 -279.8)"/>
            <path id="prefix__Path_4445" d="M940.3 332.5s-10.535-7.7-14.924-4.7 11.852 12.826 13.607 11.971 1.317-7.271 1.317-7.271z" class="prefix__cls-10" data-name="Path 4445" transform="translate(-594.728 -235.101)"/>
            <path id="prefix__Path_4446" d="M903.37 443.866a1.79 1.79 0 0 1-.009.212c-.271 6.111-11.82 24.815-18.483 33.8a47.1 47.1 0 0 1-8.67 1.785 48.332 48.332 0 0 1-5.406.3c-.672 0-1.34-.013-2-.047h-.008c-6.135-1.929-13.422-4.462-18.736-6.46-2.5-.948-4.573-1.772-5.873-2.359a8.407 8.407 0 0 1-1.387-.727c-2.195-1.713 2.635-3 4.83-3.421s-.877-5.13-.877-5.13c-7.9-8.126 1.754-14.964 1.754-14.964s3.949-8.126 3.949-10.263a.771.771 0 0 1 .17-.433c1.654-2.278 14.757-6.4 14.757-6.4v-6.842l1.357-.221 13.352-2.167 1.091-.178 2.195 3.421 9.66 1.283s8.334 11.118 8.334 18.811z" class="prefix__cls-8" data-name="Path 4446" transform="translate(-547.698 -288.327)"/>
            <path id="prefix__Path_4447" d="M855.821 464.863s-5.786 15.622-11.07 28.283l-.545 1.313c-.218.51-.432 1.016-.646 1.513a47.208 47.208 0 0 1-11.571-8.109c2.374-7.518 6.139-19.464 7.592-24.279 1.6-5.308 5.306-6.281 7.191-6.421a5.762 5.762 0 0 1 1.147.008z" class="prefix__cls-8" data-name="Path 4447" transform="translate(-541.849 -309.324)"/>
            <path id="prefix__Path_4448" d="M957.21 378.566l1.317-1.283s16.68-17.529 16.241-21.8c0 0-8.779-10.688-19.753-7.7 0 0-4.828-11.543 2.634-11.116s35.116-1.283 34.677 11.116-26.776 50.449-26.776 50.449z" class="prefix__cls-8" data-name="Path 4448" transform="translate(-611.195 -240.554)"/>
            <path id="prefix__Path_4449" d="M878.373 546.192a48.29 48.29 0 0 1-5.406.3c-.672 0-1.34-.013-2-.047h-.009a47.751 47.751 0 0 1-19.382-4.947 47.036 47.036 0 0 1-5.546-3.243l.318-.629.371-.722 6.047 1.772z" class="prefix__cls-6" data-name="Path 4449" transform="translate(-549.863 -354.853)"/>
            <ellipse id="prefix__Ellipse_1082" cx="9.001" cy="14.448" class="prefix__cls-6" data-name="Ellipse 1082" rx="9.001" ry="14.448" transform="rotate(-72.24 230.153 -157.205)"/>
            <path id="prefix__Path_4450" fill="#ec3f78" d="M156 617.6a46.879 46.879 0 0 0 .541 7.116 46.407 46.407 0 0 0 16.1 28.461c.236.2.476.395.721.588q.76.612 1.545 1.189 1.133.837 2.318 1.6a46.429 46.429 0 0 0 42.264 4.129c.326-.129.652-.262.974-.4.515-.219 1.022-.446 1.528-.687q1.925-.9 3.756-1.97 1.886-1.1 3.648-2.369c.537-.386 1.056-.777 1.575-1.185h.009A46.479 46.479 0 0 0 246 633.245a46.416 46.416 0 0 0-18.679-54.7c-.408-.258-.82-.515-1.236-.755-.429-.266-.867-.515-1.309-.755a45.963 45.963 0 0 0-19.349-5.678q-1.526-.1-3.077-.1h-.155q-2.086 0-4.12.193A46.354 46.354 0 0 0 156 617.6z" data-name="Path 4450" transform="translate(-156 -374.458)"/>
            <path id="prefix__Path_4451" d="M375.312 705.439s13.538-13.99 17.148-5.415-13.538 13.087-13.538 13.087z" class="prefix__cls-7" data-name="Path 4451" transform="translate(-281.182 -446.374)"/>
            <path id="prefix__Path_4452" d="M196.44 761.032q.76.612 1.545 1.189 1.133.837 2.318 1.6a46.429 46.429 0 0 0 42.264 4.129c.326-.129.652-.262.974-.4.515-.219 1.022-.446 1.528-.687l-1.189-1.708a13.3 13.3 0 0 0-2.871-2.047c-8.133-4.417-23.452-4.279-33.817-3.554-1.476.1-2.85.219-4.086.335-.773.069-1.494.142-2.15.21-.266.03-.519.056-.76.082-2.313.257-3.7.459-3.7.459z" class="prefix__cls-6" data-name="Path 4452" transform="translate(-179.083 -481.721)"/>
            <circle id="prefix__Ellipse_1083" cx="12.968" cy="12.968" r="12.968" class="prefix__cls-7" data-name="Ellipse 1083" transform="translate(44.167 190.799)"/>
            <path id="prefix__Path_4453" d="M252.914 597.529l-9.477 9.928-2.707 15.343 23.918 4.062-1.805-13.99s.451-6.769 2.256-8.123-12.185-7.22-12.185-7.22z" class="prefix__cls-7" data-name="Path 4453" transform="translate(-204.363 -389.458)"/>
            <path id="prefix__Path_4455" fill="#f7f8fa" d="M203.93 682.938a24.321 24.321 0 0 1 2.408-.64 36.034 36.034 0 0 1 6.219-.794 30.343 30.343 0 0 1 14.387 2.786c6.575 3.155 14.378 4.013 19.744 4.176.391.013.768.021 1.129.026.515-.219 1.022-.446 1.528-.687q1.925-.895 3.756-1.97l-.017-1.588-.283-31.418-.133-15.018-8.571-9.928-2.2-2.481-1.047.94-6.228 5.605-9.078-8.408-3.107-2.876-14.906 50.179-1.923 6.472-1.133 3.811-.176.584z" data-name="Path 4455" transform="translate(-183.358 -402.661)"/>
            <path id="prefix__Path_4456" d="M284.618 643.608a45.436 45.436 0 0 0 .567 6.73c1.545 9.867 2.871 26.272 6.155 38.118.429 1.562.9 3.039 1.4 4.417l.155.425c.326-.129.652-.262.974-.4.515-.219 1.022-.446 1.528-.687q1.925-.895 3.756-1.97 1.886-1.1 3.648-2.369l-.137-.541-2.137-8.558s1.373-7.163 2.472-15.177c1.262-9.172 2.163-19.448.236-21.375l-15.119-13.841a15.28 15.28 0 0 0-1.21 2.361 32.4 32.4 0 0 0-2.288 12.867z" class="prefix__cls-14" data-name="Path 4456" transform="translate(-229.413 -407.068)"/>
            <path id="prefix__Path_4457" d="M175.01 664.632a46.362 46.362 0 0 0 8.477 9.31c.236.2.476.395.721.588q.76.612 1.545 1.189 1.133.837 2.318 1.6c.584-.811 1.172-1.635 1.76-2.464q.521-.727 1.043-1.468c.549-.781 1.1-1.567 1.64-2.356.069-.094.133-.189.2-.283.687-.991 1.365-1.987 2.026-2.979 4.876-7.284 8.919-14.275 9.382-18.452.558-5 1.687-12.735 2.833-20.121.738-4.8 1.485-9.451 2.082-13.1.721-4.438 1.219-7.408 1.219-7.408s-23.649-2.365-26.963-.043a.776.776 0 0 0-.373.515c-.361 2.515 1.571 25.89 2.369 35.332.206 2.421.339 3.923.339 3.923s-1.352 1.807-3.335 4.7c-2.03 2.963-4.712 7.054-7.283 11.517z" class="prefix__cls-14" data-name="Path 4457" transform="translate(-166.851 -395.219)"/>
            <path id="prefix__Path_4458" d="M317.153 690.053l2.256 17.6 19.856-8.574 6.318 13.087-32.491 12.184s-5.867-31.138 4.061-34.297z" class="prefix__cls-14" data-name="Path 4458" transform="translate(-244.684 -442.27)"/>
            <path id="prefix__Path_4459" d="M282.044 563.423a6.353 6.353 0 0 0 1.584-4.285 13.583 13.583 0 0 1 .257-4.05 39.977 39.977 0 0 0-1.366-6.159c-.814-2.26-.128-3.047-3.629-4.281s-1.272-5.7-11.594-2.139a2.824 2.824 0 0 1-3.071.628c-1.906-.7-3.054 1.92-3.054 1.92s-1.189-.975-1.856.039-3.893-1.3-5.076 6.079 2.878 13.954 2.878 13.954.57-11.8 7.273-12.017 14.284-2.753 15.224 2.217a36.277 36.277 0 0 0 2.43 8.094z" class="prefix__cls-6" data-name="Path 4459" transform="translate(-211.952 -357.283)"/>
            <path id="prefix__Path_4460" d="M194.76 755.85c.236.2.476.395.721.588q.76.612 1.545 1.189 1.133.837 2.318 1.6a46.05 46.05 0 0 0 12.3 5.6c1.064-2.73-1.485-6.125-4.322-8.855-.361-.348-.73-.687-1.09-1.009-.858-.76-1.7-1.446-2.446-2.021-.034-.026-.064-.047-.094-.073-1.4-1.082-2.421-1.747-2.421-1.747l-.9.657z" class="prefix__cls-7" data-name="Path 4460" transform="translate(-178.124 -477.127)"/>
            <path id="prefix__Path_4461" d="M157.26 646.8a46.407 46.407 0 0 0 16.1 28.461c.236.2.476.395.721.588q.76.612 1.545 1.189l2.034-1.451.936-.665 3.7-2.64.292-.21 2.837-2.026-.811-.953-3.717-4.374-8.734-10.275-2.082-2.447 5.078-6.181 5.3-6.451-4.511-28.881a4.8 4.8 0 0 0-2.781-.515c-1.022.176-2.064.88-2.631 2.768-1.036 3.409-9.323 24.196-13.276 34.063z" class="prefix__cls-14" data-name="Path 4461" transform="translate(-156.719 -396.534)"/>
        </g>
    </g>
</svg>
