<svg xmlns="http://www.w3.org/2000/svg" xmlns:xlink="http://www.w3.org/1999/xlink" width="410.828" height="278.211" viewBox="0 0 410.828 278.211">
    <defs>
        <linearGradient id="prefix__linear-gradient" x1=".5" x2=".5" y1="1" gradientUnits="objectBoundingBox">
            <stop offset="0" stop-color="gray" stop-opacity=".251"/>
            <stop offset=".535" stop-color="gray" stop-opacity=".122"/>
            <stop offset="1" stop-color="gray" stop-opacity=".102"/>
        </linearGradient>
        <linearGradient id="prefix__linear-gradient-2" x1=".5" x2=".5" y1="1" y2="0" xlink:href="#prefix__linear-gradient"/>
        <linearGradient id="prefix__linear-gradient-3" x1="-4.618" x2="-4.618" y1="1" y2="0" xlink:href="#prefix__linear-gradient"/>
        <style>
            .prefix__cls-2,.prefix__cls-5{fill:#6c63ff}.prefix__cls-22,.prefix__cls-8{opacity:.1}.prefix__cls-3{fill:#444053}.prefix__cls-4{fill:#fff}.prefix__cls-5{opacity:.2}.prefix__cls-7{fill:#65617d}.prefix__cls-9{fill:#fbbebe}.prefix__cls-10{fill:#b5063a}.prefix__cls-11{fill:#3f3d56}.prefix__cls-15{opacity:.05}.prefix__cls-16{fill:#ee8e9e}.prefix__cls-18{fill:#062f4f}.prefix__cls-20{fill:#e6e8ec}.prefix__cls-26{fill:#be6f72}.prefix__cls-28{fill:#67647e}
        </style>
    </defs>
    <g id="prefix__Group_760" data-name="Group 760" transform="translate(-108.586 -645.5)">
        <g id="prefix__Group_751" data-name="Group 751">
            <path id="prefix__Path_4462" fill="#6c63ff" d="M438.829 228.314c0-25.531-10.8-48.08-27.29-61.639q.341-3.87.345-7.848c0-41.452-28.455-75.056-63.556-75.056a55.879 55.879 0 0 0-30.851 9.429C292.628 74.164 260.19 62.644 224.7 62.644c-57.743 0-107.411 30.5-129.447 74.236-1.225-.083-2.457-.13-3.7-.13-35.1 0-63.556 33.6-63.556 75.056a84.659 84.659 0 0 0 10.459 41.255 67.529 67.529 0 0 0 67.529 67.529h270.444a53.021 53.021 0 0 0 53.02-53.02 85.017 85.017 0 0 0 9.38-39.256z" data-name="Path 4462" opacity="0.1" transform="translate(80.586 582.856)"/>
            <path id="prefix__Path_4463" d="M663.834 724.443s-4.414-2.912-8.789-.841c0 0 1.348 2.6 6.884 2.348z" class="prefix__cls-2" data-name="Path 4463" transform="translate(-321.278 159.735)"/>
            <path id="prefix__Path_4464" d="M675.8 727.7s1.343 5.115-2.023 8.594c0 0-2.026-2.109-.016-7.274z" class="prefix__cls-2" data-name="Path 4464" transform="translate(-332.703 156.629)"/>
            <path id="prefix__Path_4465" d="M678.246 708.321s-.326-4.349-10.147-2.906c0 0-.046 2.806 3.4 4.136s5.027.209 6.747-1.23z" class="prefix__cls-2" data-name="Path 4465" transform="translate(-329.644 171.102)"/>
            <path id="prefix__Path_4466" d="M692.918 713.95s4.152 1.335.45 10.545c0 0-2.739-.612-3.224-4.276s.974-4.934 2.774-6.269z" class="prefix__cls-2" data-name="Path 4466" transform="translate(-343.711 165.444)"/>
            <path id="prefix__Path_4467" d="M696.586 685.214s.562-7.157-9.474-6.422c0 0-.713 6.478 7.7 8.143z" class="prefix__cls-2" data-name="Path 4467" transform="translate(-341.819 188.011)"/>
            <path id="prefix__Path_4468" d="M711.63 663.308s-1.376-8.11-11.408-5.693c0 0-.038 7.012 9.77 7.626z" class="prefix__cls-2" data-name="Path 4468" transform="translate(-350.231 201.837)"/>
            <path id="prefix__Path_4469" d="M723.634 640.334s-2.3-7.918-12.244-5.535c0 0 2.365 7.105 11.584 6.995z" class="prefix__cls-2" data-name="Path 4469" transform="translate(-357.388 216.458)"/>
            <path id="prefix__Path_4470" d="M737.165 617.234s-2.252-8.2-11.846-5.738c0 0 3.2 7.789 11.215 7.133z" class="prefix__cls-2" data-name="Path 4470" transform="translate(-366.314 231.401)"/>
            <path id="prefix__Path_4471" d="M747.512 592.209s-1.732-10.028-10.681-7.809c0 0 2.6 9.121 10.021 9.268z" class="prefix__cls-2" data-name="Path 4471" transform="translate(-373.693 248.676)"/>
            <path id="prefix__Path_4472" d="M754.467 566.9s-2.077-10.108-11.123-7.168c0 0 3.551 9.552 10.492 8.564z" class="prefix__cls-2" data-name="Path 4472" transform="translate(-377.867 264.626)"/>
            <path id="prefix__Path_4473" d="M760.735 538.821s-3.3-10.106-10.3-9.833c0 0 3.374 10.676 9.715 11.861z" class="prefix__cls-2" data-name="Path 4473" transform="translate(-382.412 283.987)"/>
            <path id="prefix__Path_4474" d="M765.588 512.573S762 500.406 756.3 501.345c0 0 2.486 9.3 9.085 13.123z" class="prefix__cls-2" data-name="Path 4474" transform="translate(-386.17 301.732)"/>
            <path id="prefix__Path_4475" d="M767.851 485.609s-3.365-10.139-8.99-10.542c0 0 2.29 9.975 8.865 13.177z" class="prefix__cls-2" data-name="Path 4475" transform="translate(-387.812 318.541)"/>
            <path id="prefix__Path_4476" d="M771.665 459.572s-4.2-10.15-7.915-10.378c0 0 1.824 9.993 7.544 12.044z" class="prefix__cls-2" data-name="Path 4476" transform="translate(-390.945 335.123)"/>
            <path id="prefix__Path_4477" d="M775.857 432.271s-2.581-11.023-6.293-11.937c0 0 .508 9.016 5.92 12.762z" class="prefix__cls-2" data-name="Path 4477" transform="translate(-394.671 353.619)"/>
            <path id="prefix__Path_4478" d="M780.767 403.42s-2.714-8.784-5.72-10.125c0 0 .594 10.358 5.023 12.273z" class="prefix__cls-2" data-name="Path 4478" transform="translate(-398.185 370.946)"/>
            <path id="prefix__Path_4479" d="M790.181 372.765l.548-15.492s-5.61 11.692-.961 18.225z" class="prefix__cls-2" data-name="Path 4479" transform="translate(-406.438 394.033)"/>
            <path id="prefix__Path_4480" d="M802.372 336.228s4.045-11.313 5.017-11.943c0 0-7.935 7.338-7.161 16.781z" class="prefix__cls-2" data-name="Path 4480" transform="translate(-414.29 415.174)"/>
            <path id="prefix__Path_4481" d="M711.378 696.582s7.119-.932 6.9 9.128c0 0-6.432 1.047-8.531-7.271z" class="prefix__cls-2" data-name="Path 4481" transform="translate(-356.338 176.589)"/>
            <path id="prefix__Path_4482" d="M730.025 673.516s8.226-.027 7.555 10.27c0 0-6.9 1.233-9.181-8.326z" class="prefix__cls-2" data-name="Path 4482" transform="translate(-368.289 191.358)"/>
            <path id="prefix__Path_4483" d="M744.532 651.676s7.466-3.5 12.244 5.535c0 0-6.9 2.918-12.9-4.076z" class="prefix__cls-2" data-name="Path 4483" transform="translate(-378.205 205.782)"/>
            <path id="prefix__Path_4484" d="M757.644 627.114s7.644-3.726 12.133 5.1c0 0-7.963 2.741-12.764-3.708z" class="prefix__cls-2" data-name="Path 4484" transform="translate(-386.627 221.596)"/>
            <path id="prefix__Path_4485" d="M765.7 601.788s7.359-7.029 13.231.08c0 0-7.517 5.784-13.569 1.486z" class="prefix__cls-2" data-name="Path 4485" transform="translate(-391.976 239.314)"/>
            <path id="prefix__Path_4486" d="M772.686 574.444s7.4-7.188 13.229.331c0 0-8.309 5.9-13.492 1.178z" class="prefix__cls-2" data-name="Path 4486" transform="translate(-396.503 256.837)"/>
            <path id="prefix__Path_4487" d="M777.013 542.619s5.7-8.972 12.417-6.971c0 0-5.917 9.5-12.353 9.081z" class="prefix__cls-2" data-name="Path 4487" transform="translate(-399.445 279.902)"/>
            <path id="prefix__Path_4488" d="M781.429 515.461s5.752-11.308 11.181-9.345c0 0-4.142 8.689-11.328 11.245z" class="prefix__cls-2" data-name="Path 4488" transform="translate(-402.181 298.788)"/>
            <path id="prefix__Path_4489" d="M781.774 488.708s5.908-8.9 11.441-7.813c0 0-4.828 9.024-12.013 10.388z" class="prefix__cls-2" data-name="Path 4489" transform="translate(-402.13 314.864)"/>
            <path id="prefix__Path_4490" d="M784.049 459.564s4.578-9.984 8.3-10.072c0 0-2.2 9.917-7.993 11.751z" class="prefix__cls-2" data-name="Path 4490" transform="translate(-403.954 334.932)"/>
            <path id="prefix__Path_4491" d="M786.579 434.886s5.088-10.113 8.912-10.133c0 0-2.6 8.647-8.742 11.022z" class="prefix__cls-2" data-name="Path 4491" transform="translate(-405.576 350.786)"/>
            <path id="prefix__Path_4492" d="M788.709 406.589s3.807-8.369 6.958-9.317c0 0-1.9 10.2-6.54 11.537z" class="prefix__cls-2" data-name="Path 4492" transform="translate(-406.941 368.398)"/>
            <path id="prefix__Path_4493" d="M793.253 376.473l8.507-12.959s-2.179 12.783-9.749 15.428z" class="prefix__cls-2" data-name="Path 4493" transform="translate(-409.057 390.033)"/>
            <path id="prefix__Path_4494" d="M804.375 346.3s9.887-6.826 10.245-7.928c0 0-5.044 9.559-14.366 11.246z" class="prefix__cls-2" data-name="Path 4494" transform="translate(-414.339 406.148)"/>
            <path id="prefix__Path_4495" d="M812.891 332.444s11.352-10.913 14.25-10.9a18.533 18.533 0 0 0-14.522 10.32z" class="prefix__cls-2" data-name="Path 4495" transform="translate(-422.264 416.932)"/>
            <path id="prefix__Path_4496" d="M789.015 377.53l.414.053c2.133-16.7 5.243-26.565 8.757-27.786l-.137-.395c-3.725 1.298-6.849 11.021-9.034 28.128z" class="prefix__cls-3" data-name="Path 4496" transform="translate(-407.137 399.077)"/>
            <path id="prefix__Path_4497" d="M780.282 465.44l.624.053c.131-1.559.233-3.155.3-4.744.6-13.821 1.519-26.51 2.734-36.024l-.362-.447c-1.218 9.531-2.4 22.606-3 36.444-.065 1.578-.165 3.167-.296 4.718z" class="prefix__cls-3" data-name="Path 4497" transform="translate(-401.54 351.091)"/>
            <path id="prefix__Path_4498" d="M646.457 612.364c.11-.048 11.109-4.959 22.525-16.676a90.615 90.615 0 0 0 16.466-23.326c5.278-10.747 8.495-23.956 9.574-36.787l-.651.306c-2.423 28.8-15.535 48.489-25.961 59.2-11.3 11.612-22.18 16.473-22.289 16.521z" class="prefix__cls-3" data-name="Path 4498" transform="translate(-315.558 279.762)"/>
            <path id="prefix__Path_4499" d="M298.139 350.2v135.667c0 4.035-3.892 7.316-8.7 7.316H105.372c-4.805 0-8.7-3.281-8.7-7.316V350.2c0-4.042 3.892-8.162 8.7-8.162h184.07c4.806 0 8.697 4.119 8.697 8.162z" class="prefix__cls-4" data-name="Path 4499" transform="translate(36.573 403.797)"/>
            <path id="prefix__Path_4500" d="M298.139 350.735v21.327H96.675v-21.327a8.694 8.694 0 0 1 8.7-8.7h184.067a8.694 8.694 0 0 1 8.697 8.7z" class="prefix__cls-5" data-name="Path 4500" transform="translate(36.573 403.797)"/>
            <circle id="prefix__Ellipse_1084" cx="5.815" cy="5.815" r="5.815" class="prefix__cls-4" data-name="Ellipse 1084" transform="translate(138.481 755.031)"/>
            <circle id="prefix__Ellipse_1085" cx="5.815" cy="5.815" r="5.815" class="prefix__cls-4" data-name="Ellipse 1085" transform="translate(155.401 755.031)"/>
            <circle id="prefix__Ellipse_1086" cx="5.815" cy="5.815" r="5.815" class="prefix__cls-4" data-name="Ellipse 1086" transform="translate(172.321 755.031)"/>
            <path id="prefix__Path_4501" fill="url(#prefix__linear-gradient)" d="M120.538 646.489s-5.623 1.361-7.849 3.9a7.57 7.57 0 0 1-2.993 1.9v-3.847c1.286-2.16 2.583-4.562 2.583-4.562.059-.118.527-1.775.527-1.775 1.054-.828-.059-3.727-.059-3.727s.644-1.834.293-2.189-.059-1.3.234-1.716a2.143 2.143 0 0 0 .234-1.3c0-.355-.469-.887-1.23-1.183s.059-.769.527-.887.586-1.242.059-1.834.059-.946.351-1.6-.937-.532-.937-.532v-5.974s-.351-1.952-.7-5.385-1.7-3.785-1.7-3.785a15.333 15.333 0 0 1-2.109-.829 14.427 14.427 0 0 0-2.226-.827 11.414 11.414 0 0 1-2.87-.4 8.8 8.8 0 0 0-1.959-.424c-.072-.034-.141-.069-.211-.1a7.669 7.669 0 0 1-3.555-3.766c-.036-.081-.069-.162-.1-.242a8.364 8.364 0 0 0 .936-1.242l.006-.01v.257c0 .146 0 .292-.006.437v.013c.935-1.651 3.645-2.028 3.9-3.912a1.978 1.978 0 0 0 .017-.258v-.012c0-.064 0-.127-.008-.19-.035-.526-.215-1.05-.25-1.582a3.08 3.08 0 0 1 .007-.456v.009c.121-1.464 1.225-2.736 1.73-4.157a5.093 5.093 0 0 0 .264-1.183v-.011q.019-.183.025-.367v-.091-.256a5.535 5.535 0 0 0-1.828-4c-.934-.812-2.168-1.322-2.814-2.381-.3-.494-.45-1.075-.779-1.551a3.9 3.9 0 0 0-2.833-1.393 16.5 16.5 0 0 1-3.213-.425c-.73-.24-1.392-.663-2.129-.877a4.075 4.075 0 0 0-4.377 1.578 7.763 7.763 0 0 1-1.167 1.689c-1.073.907-2.894.513-3.835 1.56a2.778 2.778 0 0 0-.513 2.159v.028l.017.186c0 .029.006.058.009.087l.011.093c.033.287.075.572.111.848l.015.126.029.256.016.188.017.233c0 .061.008.122.011.182a12.626 12.626 0 0 1-1.343 6.309c-.886 1.74-2.2 3.341-2.434 5.284a5.6 5.6 0 0 0-.025.958c0 .038 0 .075.005.113 0 .058.01.115.016.172s.012.132.02.2c0 .038.01.075.016.113.012.087.025.175.04.262l.01.056c.233 1.324.76 2.631 1.041 3.959a10.974 10.974 0 0 1 .209 1.5v.01q.017.24.023.48c.006.217 0 .433 0 .65a10.2 10.2 0 0 1-1.365.419c-.821.119-3.223 2.249-3.047 2.781s-1.075 4.265-1.111 4.375L70.3 632.232s-1.043 1.006-.717 1.656a2.868 2.868 0 0 1-.063 1.775s-1.763.769-1.372 1.242a2.054 2.054 0 0 1-.057 1.952c-.269.592-.709 1.656 0 1.834s.122 2.485.122 2.485 2.472-.284 2.291 1.183c-.058.469 1.729 1.753 2.475 2.267v7.067a21.646 21.646 0 0 1-2.929-.993c-1.523-.71-10.075-2.07-11.949 2.011s2.577 9.524 3.69 10.116a7.62 7.62 0 0 1 1.289 1.242c.234.414 1.582.532 1.582.532a9.935 9.935 0 0 1 1.757 1.006 20.085 20.085 0 0 0 4.939 1.471s-2.05 4.72 1.294 4.33 4.974-2.035 7.332-2.035c.942 0 2.693-.131 4.455-.289a11.759 11.759 0 0 1 1.31.309 16.75 16.75 0 0 0 3.046.651s2.636 1.42 4.042 1.065a.922.922 0 0 0 .319-.171l.032-.007a1.878 1.878 0 0 0 .847-.726 25.245 25.245 0 0 1 4.516.727c1.458.563 11.877-.217 11.877-.217s6.732.132 8.661.716 1.243-5.956-2.315-6.692a14.519 14.519 0 0 0-2.9-.256 6.352 6.352 0 0 0 .673-.818c1.283-.117 2.125-.189 2.125-.189s3.4-1.656 5.33-2.662a12.157 12.157 0 0 0 3.28-2.6s1.7-1.065 2.4-1.479 1.054-1.775 1.054-1.775c5.333-12.069-8.198-10.471-8.198-10.471zm-15.254-15.138v-.6c.187.135.16.347 0 .6zm.056 4.184c.142.187.28.357.379.484.379.486-.307.722-.257 1.536l.044.717c-.072-1.166-.131-2.134-.166-2.737z" data-name="Path 4501" transform="translate(61.588 250.242)"/>
            <path id="prefix__Path_4502" d="M74.851 779.683a34.625 34.625 0 0 1-4.8-1.464c-1.523-.7-10.075-2.05-11.949 1.992s2.577 9.43 3.69 10.016 11.949-7.439 11.949-7.439l8.552 3.6 1.64-5.594z" class="prefix__cls-7" data-name="Path 4502" transform="translate(61.588 124.763)"/>
            <rect id="prefix__Rectangle_1907" width="37.21" height="12.945" class="prefix__cls-7" data-name="Rectangle 1907" rx="6.473" transform="translate(140.055 905.559)"/>
            <path id="prefix__Path_4503" d="M152.839 793.28a6.474 6.474 0 0 1-6.472 6.474H122.1a6.473 6.473 0 1 1 0-12.946h24.266a6.472 6.472 0 0 1 6.472 6.471z" class="prefix__cls-8" data-name="Path 4503" transform="translate(24.426 118.75)"/>
            <path id="prefix__Path_4504" d="M118.777 805.885a30.936 30.936 0 0 1-6.777.915c-3.044-.043-17.288 5.874-17.288 5.874s-2.05 4.674 1.294 4.288 4.974-2.015 7.332-2.015 9.776-.815 9.776-.815l7.139-5.274z" class="prefix__cls-9" data-name="Path 4504" transform="translate(38.228 106.524)"/>
            <path id="prefix__Path_4505" d="M137.974 653.236l-6.693 1.32-.434.086s-5.291-1.406-5.467-1.524-4.978-6.59-4.978-6.59a9.689 9.689 0 0 0 4.337-1.074c.069-.039.135-.081.2-.123a4.222 4.222 0 0 0 1.81-2.211c.033-.1.063-.2.091-.3a5.939 5.939 0 0 0-.056-2.882c-.647-2.731.852-3.483 2.85-3.418a22.442 22.442 0 0 1 6.815 1.9 8 8 0 0 0 .617 2.671l.1.239a7.623 7.623 0 0 0 3.555 3.729c.07.035.139.07.211.1.213.1.438.2.671.286 5.097 1.934-3.629 7.791-3.629 7.791z" class="prefix__cls-9" data-name="Path 4505" transform="translate(21.367 215.07)"/>
            <path id="prefix__Path_4506" d="M148.29 641.327a8.437 8.437 0 0 1-10.419 1.794 5.671 5.671 0 0 0 .035-3.182c-1.582-6.678 9.665-1.522 9.665-1.522a8.1 8.1 0 0 0 .719 2.91z" class="prefix__cls-8" data-name="Path 4506" transform="translate(10.246 215.069)"/>
            <path id="prefix__Path_4507" d="M142.869 618.338a8.39 8.39 0 0 1-1.278 4.463 8.292 8.292 0 0 1-.937 1.23 8.4 8.4 0 0 1-5.711 2.725c-.169.011-.339.016-.51.016a8.435 8.435 0 1 1 8.435-8.435z" class="prefix__cls-9" data-name="Path 4507" transform="translate(17.779 232.126)"/>
            <path id="prefix__Path_4508" d="M137.974 668.474l-6.693 1.32-.434.086s-5.291-1.406-5.467-1.524-4.978-6.59-4.978-6.59a9.691 9.691 0 0 0 4.337-1.074c.069-.039.135-.081.2-.123a7.854 7.854 0 0 0 5.709 2.5 8.128 8.128 0 0 0 1.191-.095c.942-.144 1.891-.237 2.838-.336 1.813-.19 4.588-.74 6.045-2.342.07.035.139.07.211.1.213.1.438.2.671.286 5.096 1.935-3.63 7.792-3.63 7.792z" class="prefix__cls-8" data-name="Path 4508" transform="translate(21.367 199.832)"/>
            <path id="prefix__Path_4509" d="M131.418 685.762c.058 1.29 1 15.815 1 15.815h-29.23l.2-9.145.16-7.315.053-2.4.234-8.317-.845-.745-4.6-4.059c.035-.109 1.285-3.811 1.111-4.332s2.226-2.636 3.047-2.754a10.348 10.348 0 0 0 1.374-.418 18.906 18.906 0 0 1 3.422-1.092 20.793 20.793 0 0 0 3.283-.125 7.838 7.838 0 0 0 5.908 2.725 8.128 8.128 0 0 0 1.191-.095c.942-.144 1.891-.237 2.838-.336 1.9-.2 4.868-.8 6.256-2.59a8.878 8.878 0 0 1 1.959.42 11.52 11.52 0 0 0 2.87.394 14.533 14.533 0 0 1 2.226.819 15.43 15.43 0 0 0 2.109.821s1.348.351 1.7 3.748.7 5.331.7 5.331l-6.971 6.033s-.052 6.329.005 7.617z" class="prefix__cls-10" data-name="Path 4509" transform="translate(35.479 199.646)"/>
            <path id="prefix__Path_4510" d="M68.5 687.388l1.024 1.64 3.838 1.352L76 685.572l-2.43-1.64-3.9-1.523-2.224 1.291z" class="prefix__cls-9" data-name="Path 4510" transform="translate(65.361 208.155)"/>
            <path id="prefix__Path_4511" d="M188.626 769.177s5.447-.41 7.673-2.929 7.849-3.866 7.849-3.866 13.531-1.582 8.2 10.368c0 0-.351 1.347-1.054 1.757s-2.4 1.464-2.4 1.464l-20.79-1.815z" class="prefix__cls-7" data-name="Path 4511" transform="translate(-22.021 134.449)"/>
            <path id="prefix__Path_4512" d="M180.375 796.206a6.452 6.452 0 0 1-1.077 3.578c-3.5.311-11.243 1.039-12.863 1.49-1.991.552-6.02-.409-6.461-.518l-.04-.009s-.777-2.356-1.147-3.864c-.167-.685-.251-1.195-.142-1.232.351-.118 3.574-1 3.514-.5s9.665-3.778 9.665-3.778l.3 3.749c.988 1.139 8.251-.543 8.251 1.084z" class="prefix__cls-8" data-name="Path 4512" transform="translate(-3.11 115.824)"/>
            <path id="prefix__Path_4513" d="M191.019 793.388l-.41 1.523a12.131 12.131 0 0 1-3.28 2.577c-1.933 1-5.33 2.636-5.33 2.636s-12.476 1.054-14.585 1.64-6.5-.527-6.5-.527-1.64-4.979-1.289-5.1 3.573-1 3.514-.5 9.665-3.778 9.665-3.778z" class="prefix__cls-7" data-name="Path 4513" transform="translate(-3.738 115.51)"/>
            <path id="prefix__Path_4514" d="M150.412 822.595s6.132.429 7.589.986 11.877-.214 11.877-.214 6.732.131 8.661.709 1.243-5.9-2.315-6.626-8.576.343-8.576.343-5.66-.729-6.346-.815-5.209.042-5.209.042z" class="prefix__cls-9" data-name="Path 4514" transform="translate(2.134 99.434)"/>
            <path id="prefix__Path_4515" d="M83.31 787.658s8.1.729 10.334 2.058z" class="prefix__cls-8" data-name="Path 4515" transform="translate(45.139 118.206)"/>
            <path id="prefix__Path_4516" d="M208.319 772.853s-6.346 1.544-8.833 3.816z" class="prefix__cls-8" data-name="Path 4516" transform="translate(-29.317 127.694)"/>
            <path id="prefix__Path_4517" d="M84.623 782.524c.129.043 3.73.515 3.645.858s-3.645-.858-3.645-.858z" class="prefix__cls-8" data-name="Path 4517" transform="translate(44.297 121.496)"/>
            <path id="prefix__Path_4518" d="M68.86 801.209l.469 1.757a7.591 7.591 0 0 1 1.289 1.23c.234.41 1.582.527 1.582.527a9.964 9.964 0 0 1 1.757 1c.351.352 4.159 1.464 7.732 1.933s10.192 1.347 11.6 1.816a16.9 16.9 0 0 0 3.046.644s2.636 1.406 4.042 1.054 3.807-6.736 3.807-6.736-9.255-2.167-9.548-2.87-9.2-3.981-9.2-3.981l-5.272.125z" class="prefix__cls-8" data-name="Path 4518" transform="translate(54.399 111.847)"/>
            <path id="prefix__Path_4519" d="M67.881 796.364l.469 1.757a7.593 7.593 0 0 1 1.289 1.23c.234.41 1.582.527 1.582.527a9.964 9.964 0 0 1 1.757 1c.351.352 4.159 1.464 7.732 1.933s10.192 1.347 11.6 1.816a16.9 16.9 0 0 0 3.046.644s2.636 1.406 4.042 1.054 3.807-6.736 3.807-6.736-9.255-2.167-9.548-2.87-13.357-6.037-13.357-6.037l-4.1-.937z" class="prefix__cls-7" data-name="Path 4519" transform="translate(55.027 116.868)"/>
            <path id="prefix__Path_4520" d="M91.253 684.05l-1.024.586-1.976 13.472s-1.043 1-.717 1.64a2.814 2.814 0 0 1-.063 1.757s-1.763.762-1.372 1.23a2.016 2.016 0 0 1-.057 1.933c-.269.586-.709 1.64 0 1.816s.122 2.46.122 2.46 2.472-.281 2.291 1.171c-.073.586 2.8 2.46 2.8 2.46s-3.261-5.916 4.044-5.1l.628-3.335s.628-1.878 0-2.464.141-3.368.141-3.368l.138-12.1z" class="prefix__cls-10" data-name="Path 4520" transform="translate(43.632 184.607)"/>
            <path id="prefix__Path_4521" d="M96.8 732.495c.129.214 4.073.652 4.331 1.355s-4.331-1.355-4.331-1.355z" class="prefix__cls-8" data-name="Path 4521" transform="translate(36.492 153.559)"/>
            <path id="prefix__Path_4522" d="M93.339 739.3s.535-1.672 1.811-1.372-1.811 1.372-1.811 1.372z" class="prefix__cls-8" data-name="Path 4522" transform="translate(38.711 150.103)"/>
            <path id="prefix__Path_4523" d="M91.429 744.924s.943-2.23 2.23-2.058-2.23 2.058-2.23 2.058z" class="prefix__cls-8" data-name="Path 4523" transform="translate(39.935 146.918)"/>
            <path id="prefix__Path_4524" d="M190.543 743.565l-.41 2.46s-4.217 7.732-4.979 7.849-4.92-5.155-4.92-5.155l-1.113-5.155 4.381-.83 1.945-1.923s4.92.47 5.096 2.754z" class="prefix__cls-9" data-name="Path 4524" transform="translate(-16.265 148.229)"/>
            <path id="prefix__Path_4525" d="M194.307 687.774l1.581 1.113v5.913s1.23-.117.937.527-.879 1-.351 1.581.41 1.7-.059 1.816-1.289.586-.527.879 1.23.82 1.23 1.172a2.1 2.1 0 0 1-.234 1.289c-.293.41-.586 1.347-.234 1.7s-.293 2.167-.293 2.167 1.113 2.87.059 3.69c0 0-.469 1.64-.527 1.757 0 0 .738-5.7-6.631-3.291l-.187-2.979c-.05-.806.636-1.04.257-1.521s-1.326-1.582-.879-1.874.293-.82.117-1.23-.8-.41-.235-.908.893-.965.564-1.2-.9-1-.446-1.348.469-5.447.469-5.447 1.875-7.497 5.389-3.806z" class="prefix__cls-10" data-name="Path 4525" transform="translate(-22.021 182.875)"/>
            <path id="prefix__Path_4526" d="M203.306 717.177s2.252-.611 2.327 0-2.327 0-2.327 0z" class="prefix__cls-8" data-name="Path 4526" transform="translate(-31.765 163.55)"/>
            <path id="prefix__Path_4527" d="M196.262 721.632s3.087-.772 3.473-.171-3.473.171-3.473.171z" class="prefix__cls-8" data-name="Path 4527" transform="translate(-27.251 160.777)"/>
            <path id="prefix__Path_4528" d="M194.351 726.5s4.631-.643 4.931.3-4.931-.3-4.931-.3z" class="prefix__cls-8" data-name="Path 4528" transform="translate(-26.026 157.537)"/>
            <path id="prefix__Path_4529" d="M196.262 732.495c.172.043 4.459.343 4.545 1.158s-4.545-1.158-4.545-1.158z" class="prefix__cls-8" data-name="Path 4529" transform="translate(-27.251 153.559)"/>
            <rect id="prefix__Rectangle_1908" width="36.72" height="20.857" class="prefix__cls-11" data-name="Rectangle 1908" rx="10.428" transform="translate(134.564 888.695)"/>
            <circle id="prefix__Ellipse_1087" cx="1.354" cy="1.354" r="1.354" fill="#e7effd" data-name="Ellipse 1087" transform="translate(151.57 897.769)"/>
            <path id="prefix__Path_4530" d="M117.466 704.252s3.519 2.69 6.241.64c0 0-4.601.419-6.241-.64z" class="prefix__cls-8" data-name="Path 4530" transform="translate(23.248 171.659)"/>
            <path id="prefix__Path_4531" d="M167.093 706.265s3.519 2.69 6.241.64c0 0-4.601.419-6.241-.64z" class="prefix__cls-8" data-name="Path 4531" transform="translate(-8.557 170.369)"/>
            <path id="prefix__Path_4532" d="M129.489 618.336a8.39 8.39 0 0 1-1.278 4.463 12.853 12.853 0 0 0-1.9-6.66c-1.17-1.8-4.727-4.948-7.173-4.072a1.736 1.736 0 0 0-1.068 1.149c-.242.921.467 1.3.923 2.037a6.236 6.236 0 0 1 .852 4.209 5.933 5.933 0 0 1-.123.583c-.385 1.444-1.267 3.1-.357 4.284.634.826 2 1.111 2.182 2.135a1.249 1.249 0 0 1 .018.29c-.042.689-.631 1.3-.887 1.975a3.242 3.242 0 0 0 .181 2.392 15.378 15.378 0 0 1 1.213 3.207 6.338 6.338 0 0 1-.582 3.168 14.2 14.2 0 0 0-.966 2.982c-.283 1.947.431 4.2-.794 5.737a.856.856 0 0 1-.536.362c-.786.083-.652-1.328-1.283-1.8a5.52 5.52 0 0 1-.167 2.443 1.881 1.881 0 0 1-1.886 1.29l-.279-1.842a5.312 5.312 0 0 1-1.951 1.221 14.217 14.217 0 0 1 2.035-5.513c-2.063.993-3.265 3.144-4.339 5.164a6.662 6.662 0 0 0-1.128 4.056c.095.575.343 1.121.4 1.7a1.415 1.415 0 0 1-.7 1.476 1.258 1.258 0 0 1-1.358-.422l-.058-.07a1.366 1.366 0 0 1-.093-.132 2.043 2.043 0 0 1-.156-.278 5.384 5.384 0 0 1-.33-1.077l-.037-.158a19.1 19.1 0 0 1-.638-7.286 13.686 13.686 0 0 0 .385-2.682 4.96 4.96 0 0 0-.306-1.5c-.478-1.339-1.4-2.571-1.924-3.92a.215.215 0 0 1-.012-.03 2.154 2.154 0 0 1 .1-2.181 4.441 4.441 0 0 1 .979-.663 4.414 4.414 0 0 0 1.662-3.126 10.533 10.533 0 0 0 .128-1.645 18.908 18.908 0 0 1 3.428-1.088 20.779 20.779 0 0 0 3.283-.125 4.3 4.3 0 0 0 2.012-2.334c.033-.1.063-.2.091-.3a8.436 8.436 0 1 1 12.44-7.426z" class="prefix__cls-8" data-name="Path 4532" transform="translate(31.16 232.128)"/>
            <path id="prefix__Path_4533" d="M119.72 602.895c-.385 1.445-1.267 3.1-.356 4.284.635.827 2 1.11 2.181 2.136.145.812-.577 1.494-.869 2.265-.7 1.84 1.117 3.65 1.393 5.6.3 2.113-1.241 4.039-1.548 6.151-.283 1.947.431 4.2-.795 5.736a.85.85 0 0 1-.536.362c-.785.083-.652-1.327-1.283-1.8a5.491 5.491 0 0 1-.166 2.442 1.879 1.879 0 0 1-1.885 1.29l-.28-1.842a5.331 5.331 0 0 1-1.951 1.222 14.224 14.224 0 0 1 2.035-5.512c-2.062.993-3.265 3.143-4.338 5.165a6.654 6.654 0 0 0-1.128 4.055c.1.575.343 1.121.4 1.7a1.413 1.413 0 0 1-.7 1.476 1.278 1.278 0 0 1-1.416-.491 3.7 3.7 0 0 1-.58-1.488 19.435 19.435 0 0 1-.675-7.444 13.638 13.638 0 0 0 .384-2.681c-.071-1.978-1.53-3.6-2.243-5.445a2.156 2.156 0 0 1 .1-2.181 4.469 4.469 0 0 1 .98-.662 4.417 4.417 0 0 0 1.663-3.126 10.833 10.833 0 0 0-.11-3.913c-.411-1.927-1.355-3.807-1.121-5.763.229-1.924 1.548-3.509 2.434-5.232a12.386 12.386 0 0 0 1.255-7.235c-.153-1.155-.419-2.492.364-3.355.941-1.036 2.762-.646 3.835-1.545a7.679 7.679 0 0 0 1.167-1.672 4.1 4.1 0 0 1 4.377-1.563c.737.211 1.4.631 2.129.868a16.659 16.659 0 0 0 3.213.42 3.911 3.911 0 0 1 2.833 1.379c.329.472.477 1.047.779 1.536.646 1.049 1.881 1.554 2.814 2.358a5.463 5.463 0 0 1 1.538 5.835c-.558 1.553-1.848 2.925-1.738 4.571a10.044 10.044 0 0 1 .24 2.011c-.258 1.865-2.968 2.239-3.9 3.873a13.4 13.4 0 0 0-1.9-7.689c-1.171-1.8-4.728-4.949-7.173-4.072a1.737 1.737 0 0 0-1.069 1.149c-.242.921.467 1.3.922 2.037a6.193 6.193 0 0 1 .729 4.791z" class="prefix__cls-11" data-name="Path 4533" transform="translate(31.16 248.927)"/>
            <g id="prefix__Group_748" data-name="Group 748" opacity="0.2" transform="translate(136.288 838.958)">
                <path id="prefix__Path_4534" d="M111.3 649.836a10.826 10.826 0 0 0-.234-2.508c-.35-1.638-1.081-3.243-1.15-4.889-.094 1.832.763 3.6 1.15 5.416a10.811 10.811 0 0 1 .234 1.981z" data-name="Path 4534" transform="translate(-108.196 -627.684)"/>
                <path id="prefix__Path_4535" d="M124.187 698.689c.143-.262.291-.52.449-.772-2.062.993-3.264 3.143-4.338 5.165a7.223 7.223 0 0 0-1.164 3.742 8.429 8.429 0 0 1 1.164-3.215c.993-1.87 2.102-3.848 3.889-4.92z" data-name="Path 4535" transform="translate(-114.103 -663.238)"/>
                <path id="prefix__Path_4536" d="M114.081 718.387a1.243 1.243 0 0 1-.686 1.028 1.278 1.278 0 0 1-1.416-.491 3.7 3.7 0 0 1-.58-1.488 26.49 26.49 0 0 1-.816-5.318 24.33 24.33 0 0 0 .816 5.846 3.7 3.7 0 0 0 .58 1.487 1.278 1.278 0 0 0 1.416.491 1.413 1.413 0 0 0 .7-1.476c-.006-.027-.01-.053-.014-.079z" data-name="Path 4536" transform="translate(-108.627 -672.339)"/>
                <path id="prefix__Path_4537" d="M144.619 632.268a5.86 5.86 0 0 1-.19 1.245 10.332 10.332 0 0 0-.742 3.282 17.58 17.58 0 0 1 .742-2.754 5.938 5.938 0 0 0 .19-1.773z" data-name="Path 4537" transform="translate(-129.836 -621.165)"/>
                <path id="prefix__Path_4538" d="M120.092 604.634a12.16 12.16 0 0 0-.1-1.869c-.06-.457-.138-.941-.162-1.414a10.572 10.572 0 0 0 .162 1.941 12.1 12.1 0 0 1 .1 1.342z" data-name="Path 4538" transform="translate(-114.554 -601.35)"/>
                <path id="prefix__Path_4539" d="M149.024 655.008c0-.014-.008-.027-.011-.041a13.675 13.675 0 0 1-.858 1.779 2.515 2.515 0 0 0-.144 1.146 2.418 2.418 0 0 1 .144-.619c.291-.773 1.014-1.453.869-2.265z" data-name="Path 4539" transform="translate(-132.606 -635.712)"/>
                <path id="prefix__Path_4540" d="M107.621 687.407c-.071-1.978-1.53-3.6-2.243-5.445a3.657 3.657 0 0 1-.229-.9 3.036 3.036 0 0 0 .229 1.428c.7 1.816 2.12 3.414 2.235 5.348.009-.144.013-.287.008-.431z" data-name="Path 4540" transform="translate(-105.139 -652.436)"/>
                <path id="prefix__Path_4541" d="M149.331 617.323c-1.171-1.8-4.728-4.949-7.173-4.072a1.737 1.737 0 0 0-1.069 1.15 1.245 1.245 0 0 0-.018.616c.006-.03.01-.058.018-.089a1.737 1.737 0 0 1 1.069-1.149c2.445-.877 6 2.274 7.173 4.072a13.01 13.01 0 0 1 1.906 6.929 13.282 13.282 0 0 0-1.906-7.457z" data-name="Path 4541" transform="translate(-128.148 -608.88)"/>
                <path id="prefix__Path_4542" d="M173.327 635.44c-.257 1.861-2.955 2.237-3.9 3.863q0 .269-.006.538c.935-1.635 3.645-2.008 3.9-3.873a2.289 2.289 0 0 0 0-.552c.007.007.007.015.006.024z" data-name="Path 4542" transform="translate(-146.338 -623.182)"/>
                <path id="prefix__Path_4543" d="M181.351 614.517c-.558 1.553-1.848 2.925-1.738 4.571 0 .024.006.048.008.072.121-1.449 1.225-2.709 1.73-4.116a5.165 5.165 0 0 0 .287-2.006 5.074 5.074 0 0 1-.287 1.479z" data-name="Path 4543" transform="translate(-152.864 -608.841)"/>
                <path id="prefix__Path_4544" d="M142.547 703.947a.85.85 0 0 1-.536.362c-.785.083-.652-1.327-1.283-1.8.015.187.03.375.041.564.583.5.475 1.846 1.242 1.765a.851.851 0 0 0 .536-.362 4.7 4.7 0 0 0 .749-3.14 4.139 4.139 0 0 1-.749 2.611z" data-name="Path 4544" transform="translate(-127.947 -665.428)"/>
                <path id="prefix__Path_4545" d="M132.92 709.369a1.879 1.879 0 0 1-1.885 1.289l-.28-1.842A5.33 5.33 0 0 1 128.9 710c-.035.188-.07.376-.1.565a5.332 5.332 0 0 0 1.951-1.222l.28 1.842a1.879 1.879 0 0 0 1.885-1.29 4.154 4.154 0 0 0 .217-1.667 3.545 3.545 0 0 1-.217 1.14z" data-name="Path 4545" transform="translate(-120.306 -669.847)"/>
                <path id="prefix__Path_4546" d="M147.87 683.128a9.432 9.432 0 0 0-.071 1.493 7.711 7.711 0 0 1 .071-.966c.293-2.013 1.7-3.857 1.577-5.856-.114 1.801-1.31 3.494-1.577 5.329z" data-name="Path 4546" transform="translate(-132.476 -650.345)"/>
            </g>
            <path id="prefix__Path_4547" d="M601.17 261.768v35.259c0 1.861-1.795 3.374-4.011 3.374h-84.9c-2.216 0-4.011-1.513-4.011-3.374v-35.259a4.041 4.041 0 0 1 4.015-3.768h84.9a4.041 4.041 0 0 1 4.007 3.768z" class="prefix__cls-4" data-name="Path 4547" transform="translate(-227.2 457.653)"/>
            <path id="prefix__Path_4548" d="M601.17 262.015v9.837h-92.919v-9.837a4.01 4.01 0 0 1 4.011-4.015h84.9a4.01 4.01 0 0 1 4.008 4.015z" class="prefix__cls-5" data-name="Path 4548" transform="translate(-227.2 457.653)"/>
            <circle id="prefix__Ellipse_1088" cx="2.682" cy="2.682" r="2.682" class="prefix__cls-4" data-name="Ellipse 1088" transform="translate(283.465 719.898)"/>
            <circle id="prefix__Ellipse_1089" cx="2.682" cy="2.682" r="2.682" class="prefix__cls-4" data-name="Ellipse 1089" transform="translate(291.269 719.898)"/>
            <circle id="prefix__Ellipse_1090" cx="2.682" cy="2.682" r="2.682" class="prefix__cls-4" data-name="Ellipse 1090" transform="translate(299.073 719.898)"/>
            <circle id="prefix__Ellipse_1091" cx="10.486" cy="10.486" r="10.486" class="prefix__cls-2" data-name="Ellipse 1091" transform="translate(345.184 733.067)"/>
            <path id="prefix__Rectangle_1909" d="M0 0H44.221V1.561H0z" class="prefix__cls-2" data-name="Rectangle 1909" transform="rotate(180 166.65 369.029)"/>
            <path id="prefix__Rectangle_1910" d="M0 0H44.221V1.561H0z" class="prefix__cls-5" data-name="Rectangle 1910" transform="rotate(180 166.65 370.931)"/>
            <path id="prefix__Rectangle_1911" d="M0 0H44.221V1.561H0z" class="prefix__cls-5" data-name="Rectangle 1911" transform="rotate(180 166.65 372.833)"/>
            <path id="prefix__Rectangle_1912" d="M0 0H44.221V1.561H0z" class="prefix__cls-5" data-name="Rectangle 1912" transform="rotate(180 166.65 374.735)"/>
            <path id="prefix__Path_4549" d="M663.368 514.082a5.9 5.9 0 0 0-5.155 1.383s1.312 1.185 4.4-.127z" class="prefix__cls-2" data-name="Path 4549" transform="translate(-323.308 293.612)"/>
            <path id="prefix__Path_4550" d="M671.95 514.218a5.9 5.9 0 0 1 .673 5.295s-1.594-.766-1.548-4.116z" class="prefix__cls-2" data-name="Path 4550" transform="translate(-331.55 293.449)"/>
            <path id="prefix__Path_4551" d="M667.949 501.573s-1.1-2.394-6.361.5a2.835 2.835 0 0 0 2.8 1.622 3.423 3.423 0 0 0 3.561-2.122z" class="prefix__cls-2" data-name="Path 4551" transform="translate(-325.47 302.15)"/>
            <path id="prefix__Path_4552" d="M678.765 502.83s2.634-.122 2.486 5.877a2.835 2.835 0 0 1-2.731-1.739 3.423 3.423 0 0 1 .245-4.138z" class="prefix__cls-2" data-name="Path 4552" transform="translate(-335.951 300.748)"/>
            <path id="prefix__Path_4553" d="M673.37 485.448s-1.2-4.172-6.724-1.633c0 0 .967 3.819 6.085 2.982z" class="prefix__cls-2" data-name="Path 4553" transform="translate(-328.712 313.459)"/>
            <path id="prefix__Path_4554" d="M677.39 469.291s-2.5-4.3-7.665-.81c0 0 1.462 3.979 7.147 2.252z" class="prefix__cls-2" data-name="Path 4554" transform="translate(-330.685 323.637)"/>
            <path id="prefix__Path_4555" d="M679.326 453.668s-2.98-4-8.1-.544c0 0 2.843 3.523 8.04 1.51z" class="prefix__cls-2" data-name="Path 4555" transform="translate(-331.645 333.504)"/>
            <path id="prefix__Path_4556" d="M682.107 437.836s-3.01-4.167-7.923-.743c0 0 3.461 3.734 7.861 1.667z" class="prefix__cls-2" data-name="Path 4556" transform="translate(-333.543 343.743)"/>
            <path id="prefix__Path_4557" d="M682.618 421.961s-3.1-5.313-7.7-2.162c0 0 3.4 4.616 7.636 3.128z" class="prefix__cls-2" data-name="Path 4557" transform="translate(-334.013 354.601)"/>
            <path id="prefix__Path_4558" d="M681.283 405.934s-3.315-5.285-7.816-1.706c0 0 4.032 4.658 7.754 2.63z" class="prefix__cls-2" data-name="Path 4558" transform="translate(-333.083 364.737)"/>
            <path id="prefix__Path_4559" d="M678.692 389.807s-4.007-5.025-7.913-3.389c0 0 4.17 5.332 8.011 4.662z" class="prefix__cls-2" data-name="Path 4559" transform="translate(-331.361 375.564)"/>
            <path id="prefix__Path_4560" d="M675.9 373.994s-4.608-6.131-7.635-4.394c0 0 3.375 4.74 7.922 5.51z" class="prefix__cls-2" data-name="Path 4560" transform="translate(-329.752 386.331)"/>
            <path id="prefix__Path_4561" d="M671.461 358.528s-4.051-5.029-7.322-4.068c0 0 3.408 5.164 7.809 5.586z" class="prefix__cls-2" data-name="Path 4561" transform="translate(-327.106 395.914)"/>
            <path id="prefix__Path_4562" d="M668.112 343.085s-4.525-4.86-6.678-4.2c0 0 3.147 5.273 6.82 5.225z" class="prefix__cls-2" data-name="Path 4562" transform="translate(-325.372 405.859)"/>
            <path id="prefix__Path_4563" d="M664.71 326.829s-3.794-5.7-6.09-5.429c0 0 2.2 5 6.053 5.975z" class="prefix__cls-2" data-name="Path 4563" transform="translate(-323.569 417.029)"/>
            <path id="prefix__Path_4564" d="M661.385 309.468s-3.4-4.4-5.381-4.524c0 0 2.528 5.74 5.441 5.888z" class="prefix__cls-2" data-name="Path 4564" transform="translate(-321.892 427.569)"/>
            <path id="prefix__Path_4565" d="M662.981 289.057l-2.967-8.889s-.7 7.808 3.312 10.524z" class="prefix__cls-2" data-name="Path 4565" transform="translate(-324.431 443.448)"/>
            <path id="prefix__Path_4566" d="M664.071 264.121s-.1-7.263.315-7.825c0 0-2.941 5.835-.5 11.018z" class="prefix__cls-2" data-name="Path 4566" transform="translate(-326.321 458.747)"/>
            <path id="prefix__Path_4567" d="M684.828 488.956s3.834-2.034 5.842 3.709c0 0-3.421 1.954-6.37-2.312z" class="prefix__cls-2" data-name="Path 4567" transform="translate(-340.026 309.863)"/>
            <path id="prefix__Path_4568" d="M690.531 472.12s4.653-1.756 6.452 4.218c0 0-3.648 2.159-6.961-2.773z" class="prefix__cls-2" data-name="Path 4568" transform="translate(-343.693 320.583)"/>
            <path id="prefix__Path_4569" d="M694.194 455.593s3.487-3.562 8.1.544c0 0-3.288 3.112-8.17.422z" class="prefix__cls-2" data-name="Path 4569" transform="translate(-346.326 331.94)"/>
            <path id="prefix__Path_4570" d="M696.441 438.8s3.541-3.728 7.951.323c0 0-3.93 3.237-8.013.6z" class="prefix__cls-2" data-name="Path 4570" transform="translate(-347.768 342.787)"/>
            <path id="prefix__Path_4571" d="M696.335 421.689s2.68-5.538 7.51-2.754c0 0-3.033 4.866-7.37 3.712z" class="prefix__cls-2" data-name="Path 4571" transform="translate(-347.74 355.016)"/>
            <path id="prefix__Path_4572" d="M694.431 404.811s2.672-5.637 7.562-2.612c0 0-3.458 5.1-7.392 3.522z" class="prefix__cls-2" data-name="Path 4572" transform="translate(-346.519 365.813)"/>
            <path id="prefix__Path_4573" d="M691.454 384.7s1.331-6.288 5.557-6.575c0 0-1.34 6.635-5.074 7.756z" class="prefix__cls-2" data-name="Path 4573" transform="translate(-344.611 380.67)"/>
            <path id="prefix__Path_4574" d="M689.23 368.732s.865-7.621 4.355-7.658c0 0-.507 5.8-4.036 8.765z" class="prefix__cls-2" data-name="Path 4574" transform="translate(-343.186 391.597)"/>
            <path id="prefix__Path_4575" d="M683.564 353.112s1.463-6.29 4.826-6.846c0 0-.825 6.132-4.6 8.425z" class="prefix__cls-2" data-name="Path 4575" transform="translate(-339.555 401.086)"/>
            <path id="prefix__Path_4576" d="M678.927 337.434s.48-6.623 2.57-7.46c0 0 .853 6.082-2.04 8.346z" class="prefix__cls-2" data-name="Path 4576" transform="translate(-336.583 411.529)"/>
            <path id="prefix__Path_4577" d="M675.161 322.693s.742-6.8 2.9-7.624c0 0 .355 5.448-2.619 8.092z" class="prefix__cls-2" data-name="Path 4577" transform="translate(-334.169 421.081)"/>
            <path id="prefix__Path_4578" d="M670.072 306.955s.385-5.545 1.969-6.749c0 0 1.08 6.179-1.263 7.917z" class="prefix__cls-2" data-name="Path 4578" transform="translate(-330.908 430.606)"/>
            <path id="prefix__Path_4579" d="M668.581 287.885l2.076-9.139s1.47 7.7-2.257 10.8z" class="prefix__cls-2" data-name="Path 4579" transform="translate(-329.836 444.359)"/>
            <path id="prefix__Path_4580" d="M666.916 266.7s4.155-5.957 4.124-6.657c0 0-.834 6.481-5.756 9.409z" class="prefix__cls-2" data-name="Path 4580" transform="translate(-327.839 456.347)"/>
            <path id="prefix__Path_4581" d="M668.457 256.994s4.12-8.582 5.763-9.189a11.2 11.2 0 0 0-6.04 8.917z" class="prefix__cls-2" data-name="Path 4581" transform="translate(-329.695 464.189)"/>
            <path id="prefix__Path_4582" d="M667.581 289.65l.246-.058c-2.325-9.907-2.652-16.154-.92-17.588l-.161-.194c-1.836 1.52-1.546 7.69.835 17.84z" class="prefix__cls-3" data-name="Path 4582" transform="translate(-328.012 448.805)"/>
            <path id="prefix__Path_4583" d="M677.566 343.448l.365-.1c-.256-.911-.536-1.836-.833-2.75-2.587-7.953-4.749-15.334-6.073-20.98l-.3-.177c1.327 5.655 3.423 13.311 6.013 21.273.295.908.574 1.828.828 2.734z" class="prefix__cls-3" data-name="Path 4583" transform="translate(-331.326 418.28)"/>
            <path id="prefix__Path_4584" d="M658.24 437.748a49.162 49.162 0 0 0 9.228-14.21 54.783 54.783 0 0 0 4.389-16.694 63.972 63.972 0 0 0-2.361-22.859l-.3.311c4.721 16.822 1.461 30.747-2.177 39.018a48.658 48.658 0 0 1-9.127 14.072z" class="prefix__cls-3" data-name="Path 4584" transform="translate(-323.099 376.913)"/>
            <path id="prefix__Path_4585" fill="url(#prefix__linear-gradient-2)" d="M948.622 636.722l-9.937-14.407s-.186-3.567-.836-4.4-.139-2.687-.139-2.687.7-1.019.093-1.112-.093-2.363-.093-2.363l-.046-3.613s.557-3.474.093-4.308a1.366 1.366 0 0 1 .046-1.482s.557-1.992 0-2.5-.418-3.613-.279-6.069a9.212 9.212 0 0 0-.975-4.216c0-.371-3.668-3.984-3.668-4.308s-2.322-1.668-3.715-2.038-2.09-.649-2.043-.834-2.182-.926-2.182-.926-1.95-.139-2.693-1.112-3.015-1.255-3.08-1.263c-.014-.065-.03-.13-.043-.194l-.042-.209c.176-.294.338-.6.485-.908q.066-.14.128-.283a3.948 3.948 0 0 0 2.285-.709 3.11 3.11 0 0 0 1.113-2.222 4.875 4.875 0 0 0-.543-2.469c-.408-.834-1.005-1.7-.8-2.6.089-.391.323-.734.443-1.117a2.94 2.94 0 0 0-.333-2.194c-.352-.673-.842-1.265-1.233-1.916a7.51 7.51 0 0 1-.98-2.71 4.207 4.207 0 0 0-.363-1.475 2.738 2.738 0 0 0-.814-.823 8.138 8.138 0 0 0-4.991-1.513 24.288 24.288 0 0 1-3.779.23 13.827 13.827 0 0 1-2.207-.578 5.7 5.7 0 0 0-4.71.241c-1.38.908-1.9 2.644-2.815 4.016-.813 1.213-2 2.23-2.622 3.515l.021-.075a4.221 4.221 0 0 0-.346.936 6.659 6.659 0 0 0 .206 3.072 2.136 2.136 0 0 0 .75 1.372 4.369 4.369 0 0 0 1.623.319c-.021.088-.043.176-.062.265a10.607 10.607 0 0 0 7.362 12.372v.281a7.294 7.294 0 0 1-.049.8s-4.669-.96-5.922-.311-3.715 1.158-4.086 1.529-1.3.093-2.136 2.27-.929 4.4-2 5.42-1.625 1.714-1.672 2.455.139.927-.279 1.158-1.022 1.2-.836 1.575a1.319 1.319 0 0 1-.511 1.39 1.548 1.548 0 0 0-.65 1.39s-.279 1.019-.929 1.251-1.068 1.76-1.068 1.76l-2.106 2.421-4.172-4.615a1.761 1.761 0 0 0-2.484-.128l-2.049 1.843a4.045 4.045 0 0 0-2.051 1.22 5.333 5.333 0 0 0-1.063 1.581l-1.122 1.01a2.848 2.848 0 0 0-.288 3.148l2.674 2.957.016.025a4.711 4.711 0 0 0-2.586 1.053c-3.993 3.52-4.04 6.764-3.435 8.245s5.664 7.181 5.664 7.181a22.609 22.609 0 0 0 7.185 5.855l-.006.006-.032.033c-.084.089-.167.186-.249.291-.023.029-.046.057-.068.088l-.065.091-.076.111-.059.091c-.027.043-.054.087-.08.133l-.051.089c-.032.058-.064.118-.095.18l-.031.059q-.059.122-.115.253l-.038.094c-.024.06-.049.121-.072.184l-.042.119q-.031.089-.06.182l-.04.13-.055.2-.033.125q-.039.161-.073.332l-.023.132c-.014.078-.028.157-.04.239l-.023.167c-.01.076-.02.153-.028.231l-.018.176c-.008.086-.015.174-.021.263 0 .054-.008.107-.011.163-.008.146-.014.294-.017.448-.093 5.42.224 6.208.224 6.208a3.008 3.008 0 0 0 2.464 1.85 3.215 3.215 0 0 0 .794-.043c2.414-.417 8.08-1.39 10.076-1.019a17.231 17.231 0 0 0 5.005-.406l.417-.081.289.921.919-.252.779.45.492.283c.917 3.107 4.636 2.047 4.636 2.047l.883.51 8.962.231a18.049 18.049 0 0 0 3.172 1.523 2.834 2.834 0 0 0 .45.1 20.561 20.561 0 0 0 2.5.047c.687-.018 1.218-.047 1.218-.047s-.091-2.433-.221-5.157a73.181 73.181 0 0 0 8.3-.68c4.785-.84 6.782-5.193 7.518-7.518a21.884 21.884 0 0 1 .469 2.886 20.884 20.884 0 0 0 .743 2.5 8.466 8.466 0 0 0 1.022 1.853c3.529-1.2 1.393-3.011.65-3.8s.511-1.436.511-1.436.975-.649.882-1.251-.139-1.251 3.018-1.2 3.025-2.598 3.025-2.598zm-49.031-29.58a21.521 21.521 0 0 0 .879 3.87 5.109 5.109 0 0 1 .1 1.526c-1.87-.149-3.819-.229-3.819-.229a.446.446 0 0 1 .1.238l-.294-.066c-.139-.032-.282-.067-.428-.1l3.448-5.242zm-6.829 10.864l3.239.513.272.043a10.731 10.731 0 0 0-.168 1.529c.01.048.073.107.177.173a4.245 4.245 0 0 0-.063.766c.051.256 1.566.81 3.3 1.269-.024.094-.047.182-.071.266-1.534-.807-3.949-1.184-4.228-1.783s-8.5-3.471-8.5-3.471-.3-.159-.819-.409l2.166.409.595-.06a32.4 32.4 0 0 0 4.1.755z" data-name="Path 4585" transform="translate(-457.642 266.028)"/>
            <path id="prefix__Path_4586" d="M958.987 753.547s-1.289 7.778-7.824 8.928-28.35.921-28.35.921-12.472-1.795-16.982-12.334-7.41-14.727-3.544-14.911 24.714 7.041 25.91 7.133 31.943-16.016 30.79 10.263z" class="prefix__cls-7" data-name="Path 4586" transform="translate(-478.576 151.218)"/>
            <path id="prefix__Path_4587" d="M958.987 753.547s-1.289 7.778-7.824 8.928-28.35.921-28.35.921-12.472-1.795-16.982-12.334-7.41-14.727-3.544-14.911 24.714 7.041 25.91 7.133 31.943-16.016 30.79 10.263z" class="prefix__cls-15" data-name="Path 4587" transform="translate(-478.576 151.218)"/>
            <path id="prefix__Path_4588" d="M900.061 787.666a2.983 2.983 0 0 0 2.439 1.834 3.18 3.18 0 0 0 .787-.043c2.393-.414 8.008-1.381 9.986-1.012a17.035 17.035 0 0 0 4.961-.4c1.042-.2 1.8-.38 1.8-.38s-1.84-6.121-2.071-6.305-8.284-5.016-8.284-5.016l-6.377-.458h-.019a3.359 3.359 0 0 0-2.162 1.27 6.8 6.8 0 0 0-1.29 4.344c-.085 5.384.23 6.166.23 6.166z" class="prefix__cls-11" data-name="Path 4588" transform="translate(-478.151 125.751)"/>
            <path id="prefix__Path_4589" d="M900.061 787.666a2.983 2.983 0 0 0 2.439 1.834 26.326 26.326 0 0 1-1.733-2.528l.034-4.464a7.864 7.864 0 0 1 2.5-6.626h-.019s-3.359.229-3.452 5.614.231 6.17.231 6.17z" class="prefix__cls-15" data-name="Path 4589" transform="translate(-478.151 125.751)"/>
            <path id="prefix__Path_4590" d="M970.9 756.6l5.937-4.647 9.343-9.2s-1.009-.048-2.532-.115c-.378.242-1.44 1-1.479 1.923-.046 1.125-2.525.079-3.813.722s-7.594 8.713-8.7 8.661-1.979-.561-2.44.222c-.01.018-.022.035-.033.051z" class="prefix__cls-8" data-name="Path 4590" transform="translate(-521.323 147.064)"/>
            <path id="prefix__Path_4591" d="M903.46 777.155q.317.153.643.294c4.511 1.933 10.079 5.982 10.493 6.72.253.447 3.481 2.408 5.973 3.877 1.042-.2 1.8-.38 1.8-.38s-1.84-6.12-2.071-6.305-8.284-5.016-8.284-5.016l-6.377-.458h-.019a3.359 3.359 0 0 0-2.158 1.268z" class="prefix__cls-8" data-name="Path 4591" transform="translate(-480.483 125.751)"/>
            <path id="prefix__Path_4592" d="M868.1 726.093c.6 1.473 5.614 7.134 5.614 7.134a22.012 22.012 0 0 0 7.686 6.073c4.511 1.933 10.079 5.982 10.493 6.72.266.474 3.86 2.638 6.394 4.125.2.115.385.226.568.331.5.289.928.54 1.256.729.414.24.664.382.664.382s1.541-1.237 3.076-2.482c1.515-1.229 3.022-2.464 3.046-2.533.045-.138.643-1.7.505-1.795-.072-.048-.388-.685-.969-1.423a6.512 6.512 0 0 0-2.344-1.937 6.665 6.665 0 0 1-3.037-3.167s-.2-.146-.507-.34a6.153 6.153 0 0 0-2.07-.922c-1.013-.127-2.9-2.2-2.9-2.2a5.665 5.665 0 0 1-1.795-1.886c-.483-1.009-7.621-5.912-8.283-6.365l17.3 11.113 4.141 2.661 5.937-4.647 9.343-9.2s-1.256-.061-3.083-.139c-4.541-.2-12.605-.5-13.623-.275a7.763 7.763 0 0 1-2.532.166 8.881 8.881 0 0 1-3.818-.7c-1.52-.8-3.914-1.176-4.19-1.771s-8.422-3.449-8.422-3.449-11.091-5.89-15.049-2.393-4.001 6.718-3.401 8.19z" class="prefix__cls-7" data-name="Path 4592" transform="translate(-457.643 163.623)"/>
            <path id="prefix__Path_4593" d="M968.176 624.264L969.6 629l1.84 10.677 6.765.461 1.959-3.249 1.954-3.24s1.218-4.315 2.093-8.488c.775-3.693 1.28-7.276.438-7.665-.747-.345-1.238-1.589-1.557-2.926-.04-.166-.077-.334-.11-.5a26.045 26.045 0 0 1-.449-3.431s-14.175-.736-12.2 5.108a9.3 9.3 0 0 1 .534 3.108 7.231 7.231 0 0 1-.048.791 6.627 6.627 0 0 1-2.648 4.615z" class="prefix__cls-16" data-name="Path 4593" transform="translate(-521.958 231.672)"/>
            <path id="prefix__Path_4594" fill="#e3e8f4" d="M959.972 639.609l.507 8.053 1.15 6.858 1.29 3.175 1.15 17.374s11.1 1.283 13.8-.023a1.18 1.18 0 0 0 .489-.381c3.26-4.922 2.191-19.179 2.191-19.179l1.243-9.2-.828-4.777-2-.213-1.541-.164s-.348.428-.85 1.092c-1.364 1.8-3.874 5.345-3.706 6.823.229 2.025-.276 4.1-1.059 4.418s-1.426.875-1.564.323a2.492 2.492 0 0 1-.138-1.473 12.084 12.084 0 0 0-.6-3.176s-1.243-2.807-1.15-4a4.706 4.706 0 0 0-.507-2.9c-.367-.322-.874-.645-.46-2.117s-1.816-4.339-1.816-4.339z" data-name="Path 4594" transform="translate(-516.7 215.544)"/>
            <path id="prefix__Path_4595" d="M1000.755 650.507l.461 13.761 2.658 1.473a1.18 1.18 0 0 0 .489-.381c3.26-4.922 2.191-19.179 2.191-19.179l1.243-9.2-.828-4.777-2-.213c.774-3.693 1.28-7.276.438-7.665-.747-.345-1.239-1.589-1.557-2.926l-1.435 9.736s.12.877.163 1.782a5.1 5.1 0 0 1-.116 1.715 5.713 5.713 0 0 0-.093 2.3c-.83 1.462-1.244 4.17-1.447 6.784-.272 3.476-.167 6.79-.167 6.79z" class="prefix__cls-8" data-name="Path 4595" transform="translate(-542.825 224.761)"/>
            <path id="prefix__Path_4596" d="M1004.341 620.784s2.319.288 3.055 1.255 2.669 1.1 2.669 1.1 2.209.736 2.163.92.644.46 2.025.828 3.682 1.7 3.682 2.025 3.636 3.912 3.636 4.28a9.169 9.169 0 0 1 .966 4.188c-.138 2.439-.276 5.523.276 6.029s0 2.485 0 2.485a1.36 1.36 0 0 0-.046 1.473c.46.828-.092 4.28-.092 4.28l.046 3.59s-.506 2.255.092 2.347-.092 1.1-.092 1.1-.506 1.841.138 2.669.828 4.372.828 4.372l9.849 14.313s.138 2.623-2.991 2.577-3.083.6-2.991 1.2-.875 1.243-.875 1.243-1.243.644-.506 1.427 2.853 2.577-.644 3.774a8.411 8.411 0 0 1-1.012-1.841 20.761 20.761 0 0 1-.736-2.485s-.322-3.5-.966-3.958-.552-2.669-.552-2.669.921-1.795-.368-2.531-19.974-11.091-19.974-11.091l-.46-13.761s-.322-10.171 1.611-13.576a5.726 5.726 0 0 1 .092-2.3 11.932 11.932 0 0 0-.046-3.5z" class="prefix__cls-18" data-name="Path 4596" transform="translate(-543.276 225.153)"/>
            <path id="prefix__Path_4597" d="M945.932 635.21s-4.627-.953-5.87-.309-3.682 1.151-4.05 1.519-1.289.092-2.117 2.255-.921 4.372-1.979 5.385-1.611 1.7-1.657 2.439.138.92-.276 1.151-1.012 1.2-.828 1.565 9.573 8.468 9.573 8.468a22.076 22.076 0 0 0 .875 3.866c.414.782-.46 11.552-1.381 12.288s6.213.668 6.213.668.322-7.066.6-7.434-.184-7.916-.184-7.916-.046-6.443.552-8.146.531-7.363.531-7.363.529-3.4 1.172-4.188-1.174-4.248-1.174-4.248z" class="prefix__cls-8" data-name="Path 4597" transform="translate(-496.928 216.249)"/>
            <path id="prefix__Path_4598" d="M945.547 634.825s-4.627-.953-5.87-.309-3.682 1.151-4.05 1.519-1.289.092-2.117 2.255-.92 4.372-1.979 5.385-1.611 1.7-1.657 2.439.138.92-.276 1.151-1.012 1.2-.828 1.565 9.573 8.468 9.573 8.468a22.086 22.086 0 0 0 .874 3.866c.414.782-.46 11.552-1.381 12.288s6.213.668 6.213.668.322-7.065.6-7.434-.184-7.916-.184-7.916-.046-6.443.552-8.146.531-7.364.531-7.364.529-3.4 1.172-4.188-1.173-4.247-1.173-4.247z" class="prefix__cls-18" data-name="Path 4598" transform="translate(-496.682 216.496)"/>
            <path id="prefix__Path_4599" d="M973.859 615.749a9.3 9.3 0 0 1 .534 3.108 10.554 10.554 0 0 0 12.111-4.785 26.067 26.067 0 0 1-.449-3.431s-14.175-.736-12.196 5.108z" class="prefix__cls-8" data-name="Path 4599" transform="translate(-525.479 231.672)"/>
            <path id="prefix__Path_4600" d="M954.72 585.86a10.533 10.533 0 1 0 .229-2.191 10.533 10.533 0 0 0-.229 2.191z" class="prefix__cls-16" data-name="Path 4600" transform="translate(-513.334 254.29)"/>
            <path id="prefix__Path_4601" d="M919.372 672.592l-2.531.782a1.313 1.313 0 0 1-.506 1.381 1.54 1.54 0 0 0-.644 1.381s-.276 1.012-.92 1.243-1.058 1.749-1.058 1.749l-2.117 2.439s-.782.644-.644.966-.828.414-.828.414l.506 8.192 4.372.828 2.715-.276 2.209-.828 1.933-1.151.875-2.255 3.866-5.891z" class="prefix__cls-11" data-name="Path 4601" transform="translate(-484.752 191.95)"/>
            <path id="prefix__Path_4602" d="M891.781 694.257s-5.615-8.1-9.8-3.728 1.7 11.459 3.083 11.229 7.962-.6 7.962-.6z" class="prefix__cls-16" data-name="Path 4602" transform="translate(-465.767 181.284)"/>
            <rect id="prefix__Rectangle_1913" width="29.387" height="22.818" class="prefix__cls-11" data-name="Rectangle 1913" rx="1.544" transform="rotate(27.036 -1579.698 1290.055)"/>
            <path id="prefix__Path_4670" fill="#00c2cd" d="M0 0h24.7v18.614H0z" data-name="Path 4670" transform="rotate(27.036 -1585.163 1293.945)"/>
            <circle id="prefix__Ellipse_1092" cx=".405" cy=".405" r=".405" class="prefix__cls-20" data-name="Ellipse 1092" transform="translate(409.446 869.383)"/>
            <circle id="prefix__Ellipse_1093" cx=".668" cy=".668" r=".668" class="prefix__cls-20" data-name="Ellipse 1093" transform="translate(432.999 881.323)"/>
            <path id="prefix__Path_4603" d="M901.791 702.871c-.046 6.075 12.518 7.363 12.518 7.363l3.21.509 1.437.228.6-5.937s-.659-.1-1.481-.29c-1.216-.283-2.792-.773-3.122-1.459-.553-1.15-13.117-6.485-13.162-.414z" class="prefix__cls-16" data-name="Path 4603" transform="translate(-479.413 174.373)"/>
            <path id="prefix__Path_4604" d="M955.358 583.671a1.249 1.249 0 0 1 .771.345c.356.377.375 1.045.838 1.277a.933.933 0 0 0 .549.064c1.223-.173 1.932-1.555 3.107-1.934a3.122 3.122 0 0 1 2.058.177 1.533 1.533 0 0 1 .682.438c.393.509.117 1.258.3 1.874.253.855 1.273 1.194 2.156 1.306a3.769 3.769 0 0 1 2.469.841 2.238 2.238 0 0 1 .439 1.781 1.4 1.4 0 0 0-.005.659c.243.69 1.437.588 1.749.043.228-.4.159-.725.7-.835a2.288 2.288 0 0 1 1.127.195 8.273 8.273 0 0 0 2.915.447 10.54 10.54 0 1 0-19.85-6.676z" class="prefix__cls-8" data-name="Path 4604" transform="translate(-513.743 254.288)"/>
            <path id="prefix__Path_4605" d="M964.107 580.215a1.419 1.419 0 0 1 .005-.659 2.238 2.238 0 0 0-.438-1.781 3.767 3.767 0 0 0-2.47-.842c-.884-.112-1.9-.451-2.156-1.3-.182-.616.094-1.365-.3-1.873a1.518 1.518 0 0 0-.681-.438 3.127 3.127 0 0 0-2.059-.178c-1.175.38-1.884 1.762-3.106 1.935a.936.936 0 0 1-.549-.064c-.463-.232-.483-.9-.838-1.276-.559-.592-1.619-.209-2.3-.649a2.124 2.124 0 0 1-.743-1.363 6.63 6.63 0 0 1-.2-3.052c.4-1.712 1.93-2.886 2.907-4.347.911-1.362 1.422-3.087 2.79-3.989a5.639 5.639 0 0 1 4.668-.24 13.686 13.686 0 0 0 2.187.574 24 24 0 0 0 3.746-.229 8.052 8.052 0 0 1 4.947 1.5 2.717 2.717 0 0 1 .807.817 4.186 4.186 0 0 1 .359 1.465 7.476 7.476 0 0 0 .972 2.692c.387.647.873 1.235 1.222 1.9a2.927 2.927 0 0 1 .33 2.18c-.119.38-.351.721-.439 1.109-.2.9.387 1.757.791 2.586a4.854 4.854 0 0 1 .538 2.453 3.094 3.094 0 0 1-1.1 2.207 3.963 3.963 0 0 1-2.333.707 8.276 8.276 0 0 1-2.972-.446 2.3 2.3 0 0 0-1.127-.195c-.537.11-.469.439-.7.836-.321.545-1.514.645-1.758-.04z" class="prefix__cls-11" data-name="Path 4605" transform="translate(-509.129 264.295)"/>
            <path id="prefix__Path_4606" d="M969.372 757.321l5.937-4.647 9.343-9.2s-1.256-.061-3.083-.139a2.017 2.017 0 0 0-.652 1.258c-.046 1.125-2.525.079-3.813.722s-7.594 8.713-8.7 8.661-1.979-.561-2.44.222c-.01.018-.022.034-.033.051a1.31 1.31 0 0 1-.7.417z" class="prefix__cls-8" data-name="Path 4606" transform="translate(-520.071 146.615)"/>
            <path id="prefix__Path_4607" d="M943.44 751.329l2.984 9.522.468 1.5 1.419-.389 3.133-.86 13.949-3.831a12.1 12.1 0 0 0 5.02-1.339 15.209 15.209 0 0 1 8.668-1.89c1.844.173 3.894-.623 5.6-3.767 0 0 3.866-11.413-5.891-14.681s-10.222 1.737-10.222 1.737-.05.028-.133.081c-.378.242-1.44 1-1.479 1.923-.046 1.125-2.525.079-3.813.722s-7.594 8.713-8.7 8.661-1.979-.561-2.44.222c-.01.018-.022.035-.033.051-.341.469-1.365.579-2.043.6-.37.011-.638-.005-.638-.005l-.087.026-.708.211z" class="prefix__cls-7" data-name="Path 4607" transform="translate(-506.105 152.286)"/>
            <path id="prefix__Path_4608" d="M945.589 719.179l1.437.228.6-5.937s-.659-.1-1.481-.29c.217.829-.277 4.03-.556 5.999z" class="prefix__cls-8" data-name="Path 4608" transform="translate(-507.482 165.938)"/>
            <path id="prefix__Path_4609" d="M983.6 652.385s4.28-1.243 3.221 10.907a33.965 33.965 0 0 1-8.974 19.836s-9.112 4-13.208 3.36-7.087-.782-7.087-.782a10.4 10.4 0 0 0-4.142-1.1c-2.3-.092-7.133-1.519-7.225-1.979s1.2-7.225.644-7.732c0 0 6.443.264 7.087.73s1.565.132 2.255 0 2.807-1.973 7-.362a4.228 4.228 0 0 0 1.979-.23 1.975 1.975 0 0 1 1.439-.092 4.051 4.051 0 0 0 1-.506c.138-.184 1.243 0 1.243 0a.489.489 0 0 0 .69-.322 3.011 3.011 0 0 1 .644-1.013s1.243-7 3.59-9.619a1.5 1.5 0 0 0 .506-1.335c-.19-.746 3.813-11.234 9.338-9.761z" class="prefix__cls-8" data-name="Path 4609" transform="translate(-507.86 204.991)"/>
            <path id="prefix__Path_4610" d="M983.279 649.785s4.28-1.243 3.222 10.907a33.966 33.966 0 0 1-8.974 19.835s-9.112 4-13.208 3.36-7.087-.782-7.087-.782a10.4 10.4 0 0 0-4.142-1.1c-2.3-.092-7.133-1.519-7.226-1.979s1.2-7.225.644-7.732c0 0 6.443.264 7.087.73s1.565.132 2.255 0 2.807-1.973 7-.362a4.227 4.227 0 0 0 1.979-.23 1.976 1.976 0 0 1 1.44-.092 4.052 4.052 0 0 0 1-.506c.138-.184 1.243 0 1.243 0a.489.489 0 0 0 .69-.322 3.012 3.012 0 0 1 .644-1.013s1.243-7 3.59-9.619a1.5 1.5 0 0 0 .506-1.335c-.19-.745 3.817-11.233 9.337-9.76z" class="prefix__cls-18" data-name="Path 4610" transform="translate(-507.655 206.657)"/>
            <path id="prefix__Path_4611" d="M957.5 776.808l6.079 7.355a.184.184 0 0 0 .039-.043c.046-.138.643-1.7.505-1.795a8.554 8.554 0 0 0-3.314-3.36 6.293 6.293 0 0 1-2.6-2.368z" class="prefix__cls-8" data-name="Path 4611" transform="translate(-515.118 125.295)"/>
            <path id="prefix__Path_4612" d="M957.5 798.123c.414.24.664.382.664.382s1.541-1.237 3.076-2.482c1.515-1.229 3.022-2.464 3.046-2.534.046-.138.643-1.7.505-1.795-.072-.048-.388-.685-.969-1.423-4.121-1.154-1.5 1.706-1.147 1.838 0 0-5.016-1.151-5.292 4.313a6.42 6.42 0 0 0 .117 1.701z" class="prefix__cls-8" data-name="Path 4612" transform="translate(-515.036 116.707)"/>
            <path id="prefix__Path_4613" d="M963.331 800.439l.875.507 8.882.229a17.878 17.878 0 0 0 3.144 1.513 2.807 2.807 0 0 0 .446.1 20.356 20.356 0 0 0 2.476.047c.681-.018 1.207-.047 1.207-.047s-.42-11.2-.737-12.38c-.152-.563-.9-.439-1.631-.157a10.791 10.791 0 0 0-1.59.8 28.47 28.47 0 0 0-4.373.69c-.6.324-2.3-.186-3.359 0s-2.945-1.245-2.945-1.245c-5.155-1.7-2.256 1.473-1.887 1.611 0 0-5.016-1.151-5.292 4.313s4.784 4.019 4.784 4.019z" class="prefix__cls-11" data-name="Path 4613" transform="translate(-515.779 116.707)"/>
            <path id="prefix__Path_4614" fill="#565387" d="M1007.633 796.135c.1 2.318 1.9 5.2 2.982 6.72.681-.018 1.207-.047 1.207-.047s-.42-11.2-.737-12.38c-.152-.563-.9-.439-1.631-.157-.891 1.669-1.896 3.994-1.821 5.864z" data-name="Path 4614" transform="translate(-547.243 116.685)"/>
            <path id="prefix__Path_4615" d="M1007.633 796.135c.1 2.318 1.9 5.2 2.982 6.72.681-.018 1.207-.047 1.207-.047s-.42-11.2-.737-12.38c-.152-.563-.9-.439-1.631-.157-.891 1.669-1.896 3.994-1.821 5.864z" class="prefix__cls-8" data-name="Path 4615" transform="translate(-547.243 116.685)"/>
            <path id="prefix__Path_4616" d="M1003.152 796.443c.612 2.238.6 4.748 1.579 6.267a2.813 2.813 0 0 0 .446.1 20.354 20.354 0 0 0 2.475.047c.681-.018 1.207-.047 1.207-.047s-.42-11.2-.737-12.38c-.152-.563-.9-.439-1.631-.157a10.809 10.809 0 0 0-1.59.8s-2.532 2.503-1.749 5.37z" class="prefix__cls-15" data-name="Path 4616" transform="translate(-544.277 116.685)"/>
            <path id="prefix__Path_4617" d="M918.089 744.653a18.384 18.384 0 0 1 8.15 6.52z" class="prefix__cls-8" data-name="Path 4617" transform="translate(-489.858 145.767)"/>
            <g id="prefix__Group_749" class="prefix__cls-22" data-name="Group 749" transform="translate(439.015 832.034)">
                <path id="prefix__Path_4618" d="M1017.6 590.877l-.027.1a3.263 3.263 0 0 1-.153.384 2.82 2.82 0 0 1 .18-.484z" data-name="Path 4618" transform="translate(-992.531 -587.714)"/>
                <path id="prefix__Path_4619" d="M948.224 583a4.2 4.2 0 0 1 .343-.93c-.024.079-.048.158-.067.24a6.631 6.631 0 0 0 .2 3.052 2.124 2.124 0 0 0 .743 1.363c.685.44 1.745.057 2.3.649.355.377.375 1.044.838 1.276a.935.935 0 0 0 .549.064c1.223-.173 1.931-1.555 3.106-1.935a3.125 3.125 0 0 1 2.059.178 1.518 1.518 0 0 1 .681.438c.393.508.117 1.258.3 1.874.253.854 1.272 1.193 2.156 1.3a3.767 3.767 0 0 1 2.47.842 2.238 2.238 0 0 1 .438 1.781 1.417 1.417 0 0 0-.005.659c.244.69 1.437.588 1.75.042.228-.4.159-.725.7-.836a2.3 2.3 0 0 1 1.127.195 8.278 8.278 0 0 0 2.973.446 3.963 3.963 0 0 0 2.333-.707 2.748 2.748 0 0 0 .716-.87 2.944 2.944 0 0 1-.992 1.56 3.962 3.962 0 0 1-2.333.707 8.275 8.275 0 0 1-2.972-.446 2.3 2.3 0 0 0-1.127-.194c-.537.11-.468.439-.7.836-.313.545-1.506.647-1.75-.042a1.416 1.416 0 0 1 .005-.659 2.238 2.238 0 0 0-.438-1.781 3.768 3.768 0 0 0-2.47-.842c-.884-.112-1.9-.45-2.156-1.3-.182-.616.094-1.365-.3-1.874a1.518 1.518 0 0 0-.681-.438 3.125 3.125 0 0 0-2.059-.178c-1.175.38-1.884 1.762-3.106 1.935a.935.935 0 0 1-.549-.064c-.463-.232-.482-.9-.838-1.276-.559-.592-1.619-.209-2.3-.649a2.123 2.123 0 0 1-.743-1.363 6.63 6.63 0 0 1-.201-3.053z" data-name="Path 4619" transform="translate(-948.118 -582.071)"/>
            </g>
            <path id="prefix__Path_4620" d="M1013.3 683.294c-.843 1.138-1.805 2.191-2.551 3.395a6.458 6.458 0 0 0-1.119 4.018 10.523 10.523 0 0 0 1.612-2.88 41.07 41.07 0 0 1 3.1-4.654c.2-.3 1.47-2 .827-2.084-.531-.067-1.579 1.817-1.869 2.205z" class="prefix__cls-8" data-name="Path 4620" transform="translate(-548.51 186.505)"/>
            <ellipse id="prefix__Ellipse_1094" cx="43.453" cy="40.939" fill="#f1f1f1" data-name="Ellipse 1094" rx="43.453" ry="40.939" transform="translate(176.997 792.686)"/>
            <path id="prefix__Path_4621" fill="#2f2e41" d="M325.331 550.156l-35.948-10.717a54.9 54.9 0 0 1-23.888 5.432c-28.119 0-50.994-20.943-50.994-46.685s22.875-46.686 50.993-46.686 50.994 20.943 50.994 46.685a45.069 45.069 0 0 1-16.388 34.287zm-36.012-11.486l.134.04 31.84 9.493-22.369-15.682.362-.3c10.477-8.7 16.485-21.106 16.485-34.036 0-25.346-22.554-45.967-50.276-45.967s-50.276 20.621-50.276 45.967 22.554 45.967 50.276 45.967a54.163 54.163 0 0 0 23.7-5.42z" data-name="Path 4621" transform="translate(-38.939 333.644)"/>
            <circle id="prefix__Ellipse_1095" cx="3.95" cy="3.95" r="3.95" class="prefix__cls-2" data-name="Ellipse 1095" transform="translate(205.547 830.573)"/>
            <circle id="prefix__Ellipse_1096" cx="3.95" cy="3.95" r="3.95" class="prefix__cls-2" data-name="Ellipse 1096" transform="translate(217.039 830.573)"/>
            <circle id="prefix__Ellipse_1097" cx="3.95" cy="3.95" r="3.95" class="prefix__cls-2" data-name="Ellipse 1097" transform="translate(228.531 830.573)"/>
            <path id="prefix__Path_4622" fill="url(#prefix__linear-gradient-3)" d="M290.221 274.963c2.474 1.658 6.225.868 6.225.868s5.667-2.684 7.342-2.684 5.746-1.658 5.746-1.658l-.137-1.118-.416-3.367c2.579 2.01 5.445 1.317 6.858 1.17 1.516-.158 9.615-4.973 10.394-5.288a2.061 2.061 0 0 0 .71-.717 18.243 18.243 0 0 0 1.371-2.505c.508-.446.878-.8.852-.883a5.576 5.576 0 0 1 .5-1.325 6.494 6.494 0 0 0 2.457-.885 2.231 2.231 0 0 0 .34-.344 2.184 2.184 0 0 0 .458-1.392s7.9-7.972 6.864-11.287 2.554-3.394 2.554-3.394 5.507-2.368 6.273-3.789c.473-.875 4.6-2.793 7.711-4.141l.382-.165c1.209 2.644 7.332.61 8.539-.509 1.277-1.184 5.028-1.737 5.028-1.737s.16-15.471 1.357-17.444c.568-.936.705-3.991.691-6.941v-.314c1.677-.327 5.664-1.085 7.517-1.269a7.2 7.2 0 0 0 3.335-1.56l.111.139a2.3 2.3 0 0 0 1.021.168 1.58 1.58 0 0 0 .894-.168c.718-.395 3.352-1.184 4.31-1.579s-.16-3.236-.878-3.789-1.2-1.263-.8-1.579-.958-1.105-1.756-1.263a25.973 25.973 0 0 1-3.192-1.263s-.878-1.815-2.314-1.815a7.417 7.417 0 0 1-3.352-1.421c-.08-.631-1.6-.71-1.6-.71s-5.746-4.42-6.7-3.868-3.591-.868-3.591-.868-3.23.362-3.99-.233a.908.908 0 0 0-.192-.536 5.579 5.579 0 0 0-1.816-1.876 7.123 7.123 0 0 0 .092-1.14c0-.166-.006-.332-.018-.494 0-.027-.005-.054-.008-.082l.113-1.111a2.3 2.3 0 0 1 .279-1.046c.135-.208.333-.372.483-.57a1.576 1.576 0 0 0 .1-.148l.023-.042q.033-.059.06-.119l.018-.041a1.8 1.8 0 0 0 .1-.336l.005-.027q.015-.078.024-.158v-.022a3.4 3.4 0 0 0-.18-1.355 9.118 9.118 0 0 1-.654-2.244 6.918 6.918 0 0 0-.04-1.157 2.947 2.947 0 0 0-1.934-1.77 10.767 10.767 0 0 1-2.723-1.77c-.806-.625-2.134-.311-3.148-.246a27.5 27.5 0 0 0-6.779 1.567 6.739 6.739 0 0 0-2.368 1.176 2.61 2.61 0 0 0-.867 1.462 1.833 1.833 0 0 0-.026.4v.036q.005.077.017.153c0 .017 0 .033.008.05a1.633 1.633 0 0 0 .044.181c.092.291.263.555.361.843a1.834 1.834 0 0 1 .054.195v.021c.013.063.024.127.032.19a8.16 8.16 0 0 1-.294 2.2c-.017.1-.028.209-.036.315a3.764 3.764 0 0 0 .11 1.26v.014c.014.051.03.1.046.15.007.021.013.043.021.064.015.042.032.083.048.125s.022.055.034.083l.051.109c.017.036.03.061.046.09l.055.1c.019.035.038.062.058.092s.039.058.06.086l.07.091c.024.03.042.052.064.076l.084.088c.029.029.044.045.067.066s.066.057.1.085l.067.055c.04.03.082.057.124.084.02.013.039.027.06.039a2.091 2.091 0 0 0 .2.106c.458.209 1.035.283 1.313.686a.9.9 0 0 1 .134.314V180.549c0 .234.016.464.04.691a2.649 2.649 0 0 0 .021.374 1.08 1.08 0 0 0 .078.271 7.16 7.16 0 0 0 2.421 4.065l.082.425a7.975 7.975 0 0 1-2.322 1.217c-1.915.56-4.629 3.148-4.629 3.148s-1.349 9.709-1.671 10.893a52.628 52.628 0 0 0-.563 5.762 13.225 13.225 0 0 1-.8 2.842 8.261 8.261 0 0 0 .668 5.279 4.457 4.457 0 0 1-.589.957c-1.915 2.21-7.662 2.131-9.577 2.131a2.415 2.415 0 0 0-2.384 1.238c-3.506 1-14.865 4.238-16.212 4.827-1.6.7-2.474 7.59-2.474 7.59s-3.352 11.445-3.192 12.951-1.117 5.677-1.117 5.677 0 4.722-.543 5.042a.042.042 0 0 1-.016.009c-.559.237-.479 2.526-.479 2.526s.411.119 1.052.281a18.341 18.341 0 0 1-1.293 3.924c-.249-.314-.491-.446-.637-.079-.4 1-6.385 8.108-7.9 8.108a4.6 4.6 0 0 0-2.7 1.391c-.849.88-1.215 2.011.08 2.874zm27.455-41.123a66.547 66.547 0 0 0 14.047-.481 16.138 16.138 0 0 1-1.038 2.771 28.039 28.039 0 0 0-1.836 6.236c0 .947-2.155 9.077-2.793 9.472a2.363 2.363 0 0 0-.694 1 9.42 9.42 0 0 0-.423 1.206c.009.206.029.4.055.585-.477.437-.981.895-1.431 1.3a31.08 31.08 0 0 0-3.812 2.456c-.958.868-5.427 1.932-5.427 1.932a27.7 27.7 0 0 0-3.212 1.639c-1.385.836-2.771 1.9-3.132 2.943.156-1.764.412-3.889.582-5.241.087 0 .172-.005.255-.011 2.236-.139 1.9-2.273 1.785-2.8-.016-.076-.029-.118-.029-.118 1.6-1.737 5.188-14.681 4.709-16.1a2.547 2.547 0 0 1 .589-2.684 3.2 3.2 0 0 0 .049-2.447c-.4-.868 1.756-1.658 1.756-1.658zm54.859-34.822c-.141.034-.283.068-.423.1 0-.06-.005-.092-.005-.092s.159 0 .429-.013zm-23.19-11.91c-.064.079-.129.156-.2.23l-.082.085v-.438q.138.064.279.123zm-7.995 15.314l.029.444s-.044.271-.124.735zm36.677-4.411l-1.392.24c.2-.075.392-.156.58-.245a1.329 1.329 0 0 1 .444-.121 2.421 2.421 0 0 1 .519.111 1.092 1.092 0 0 0-.151.015z" data-name="Path 4622" transform="translate(-86.925 515.587)"/>
            <path id="prefix__Path_4623" d="M389.362 406.687a30.27 30.27 0 0 0-1.526 3.554c.078.235-3.447 3.055-3.447 3.055l-3.838-2.742.392-1.88s4.308-3.882 4.622-4.33 3.797 2.343 3.797 2.343z" class="prefix__cls-26" data-name="Path 4623" transform="translate(-145.359 363.897)"/>
            <path id="prefix__Path_4624" d="M343.2 423.478c2.663 2.585 5.8 1.8 7.285 1.645s9.438-4.935 10.2-5.248a2.033 2.033 0 0 0 .7-.711 18.177 18.177 0 0 0 1.346-2.486c-.053.014-2.659.758-3.317 0 0 0-1.1-1.344-1.332-1.344s-.019-2.359-.019-2.359a30.461 30.461 0 0 0-3.741 2.438c-.94.862-5.327 1.918-5.327 1.918a27.069 27.069 0 0 0-3.152 1.626c-2.078 1.264-4.16 3.051-2.643 4.521z" class="prefix__cls-11" data-name="Path 4624" transform="translate(-121.087 358.336)"/>
            <path id="prefix__Path_4625" d="M343.2 434.153c2.663 2.585 5.8 1.8 7.285 1.645s9.438-4.935 10.2-5.248a2.034 2.034 0 0 0 .7-.711c-.927-.553-6.983 3.3-8.678 4s-5.981.313-8.41-.705c-1.213-.508.016-2.07 1.548-3.506-2.08 1.272-4.162 3.055-2.645 4.525z" class="prefix__cls-8" data-name="Path 4625" transform="translate(-121.087 347.662)"/>
            <path id="prefix__Path_4626" d="M331.018 417.516s-1.116 8.382-.832 9.478-7-3.76-7-3.76 2.549-5.252 1.8-6.459 6.032.741 6.032.741z" class="prefix__cls-26" data-name="Path 4626" transform="translate(-108.593 356.151)"/>
            <path id="prefix__Path_4627" d="M325.576 348.4s4.543 1.332 7.05 1.175c2.195-.138 1.867-2.256 1.752-2.781-.016-.075-.028-.117-.028-.117 1.567-1.723 5.092-14.57 4.622-15.98a2.545 2.545 0 0 1 .578-2.663 3.2 3.2 0 0 0 .049-2.428c-.392-.862 1.723-1.645 1.723-1.645a64.605 64.605 0 0 0 13.787-.478 16.131 16.131 0 0 1-1.018 2.749 28.064 28.064 0 0 0-1.8 6.188c0 .94-2.115 9.008-2.742 9.4a2.345 2.345 0 0 0-.682 1 9.412 9.412 0 0 0-.415 1.2c.235 5.248 6.188 3.212 7.05 2.507a2.135 2.135 0 0 0 .783-1.723s7.755-7.912 6.737-11.2 2.507-3.368 2.507-3.368 5.4-2.35 6.157-3.76c.464-.868 4.517-2.771 7.568-4.109 1.911-.838 3.429-1.452 3.429-1.452l-1.271-4.556-1-3.591-1.885-.708-6.027-2.269-10.824-1.491-.992.128-10.512 1.36s-15.353 4.387-16.92 5.079-2.428 7.532-2.428 7.532-3.29 11.358-3.133 12.853-1.1 5.634-1.1 5.634 0 4.686-.533 5a.042.042 0 0 1-.016.009c-.542.237-.466 2.505-.466 2.505z" class="prefix__cls-11" data-name="Path 4627" transform="translate(-110.124 425.42)"/>
            <path id="prefix__Path_4628" d="M369.427 340.871a64.607 64.607 0 0 0 13.787-.478c.47-1.48 7.055-5.554 7.055-5.554-5.403-1.331-20.842 6.032-20.842 6.032z" class="prefix__cls-8" data-name="Path 4628" transform="translate(-138.229 408.513)"/>
            <path id="prefix__Path_4629" d="M389.276 405.627c.235 5.248 6.188 3.212 7.05 2.507a2.208 2.208 0 0 0 .334-.342c-2.081.766-5.768 1.358-6.968-3.362a9.411 9.411 0 0 0-.416 1.197z" class="prefix__cls-3" data-name="Path 4629" transform="translate(-150.95 363.811)"/>
            <path id="prefix__Path_4630" d="M325.576 415.488s4.543 1.332 7.05 1.175c2.195-.138 1.867-2.256 1.752-2.781a40.794 40.794 0 0 1-8.316-.91.041.041 0 0 1-.016.009c-.546.235-.47 2.507-.47 2.507z" class="prefix__cls-3" data-name="Path 4630" transform="translate(-110.124 358.336)"/>
            <path id="prefix__Path_4631" d="M389.276 405.627c.235 5.248 6.188 3.212 7.05 2.507a2.208 2.208 0 0 0 .334-.342c-2.081.766-5.768 1.358-6.968-3.362a9.411 9.411 0 0 0-.416 1.197z" class="prefix__cls-8" data-name="Path 4631" transform="translate(-150.95 363.811)"/>
            <path id="prefix__Path_4632" d="M325.576 415.488s4.543 1.332 7.05 1.175c2.195-.138 1.867-2.256 1.752-2.781a40.794 40.794 0 0 1-8.316-.91.041.041 0 0 1-.016.009c-.546.235-.47 2.507-.47 2.507z" class="prefix__cls-8" data-name="Path 4632" transform="translate(-110.124 358.336)"/>
            <path id="prefix__Path_4633" d="M292.909 443.264c2.428 1.645 6.11.862 6.11.862s5.562-2.663 7.207-2.663 5.64-1.645 5.64-1.645l-.135-1.109-.649-5.314s-6.1-.157-6.345-.7c0 0-1.1-2.7-1.488-1.7s-6.267 8.046-7.755 8.046a4.5 4.5 0 0 0-2.652 1.38c-.842.865-1.204 1.979.067 2.843z" class="prefix__cls-11" data-name="Path 4633" transform="translate(-88.658 346.932)"/>
            <path id="prefix__Path_4634" d="M353.067 336.654s5.092 3.212 3.682 3.917-3.682-3.917-3.682-3.917z" class="prefix__cls-8" data-name="Path 4634" transform="translate(-127.745 407.247)"/>
            <path id="prefix__Path_4635" d="M347.178 353.886s4.387 4.164 2.742 4.276-2.742-4.276-2.742-4.276z" class="prefix__cls-8" data-name="Path 4635" transform="translate(-123.97 396.204)"/>
            <path id="prefix__Path_4636" d="M334.09 390.75s2.227 4.186 1.388 4.913-1.388-4.913-1.388-4.913z" class="prefix__cls-8" data-name="Path 4636" transform="translate(-115.583 372.578)"/>
            <path id="prefix__Path_4637" d="M402.27 397.624c-.783.783 7.442-2.585 5.562-2.742s-5.562 2.742-5.562 2.742z" class="prefix__cls-8" data-name="Path 4637" transform="translate(-159.244 369.933)"/>
            <path id="prefix__Path_4638" d="M448.17 219.953l.262-.039c.974-.149 4.506-.7 7.673-1.391.772-.168 1.521-.343 2.207-.523 2.427-.636 4.055-1.322 3.017-1.885a5.556 5.556 0 0 1-2.48-3.266c-.036-.114-.07-.226-.1-.335a8.605 8.605 0 0 1-.316-1.8s-8.852-3.133-7.128 0a2.97 2.97 0 0 1-.522 3.671 6.874 6.874 0 0 1-1.907 1.421z" class="prefix__cls-26" data-name="Path 4638" transform="translate(-188.695 488.855)"/>
            <path id="prefix__Path_4639" d="M440.064 232.172s-3.166 2.272-6.4.392-7.464 16.606-7.464 16.606l-4.387 10.81s-2.842 2.35.694 3.368 11.382-1.018 13.373 1.958a8.705 8.705 0 0 0 6.149 3.447c.385 0 1.878-11.2 1.878-11.2l.387-16.215z" class="prefix__cls-8" data-name="Path 4639" transform="translate(-171.11 474.208)"/>
            <path id="prefix__Path_4640" fill="#f3f5f9" d="M422.943 261.6c3.536 1.018 11.382-1.018 13.373 1.958a7.649 7.649 0 0 0 3.37 2.712 8.825 8.825 0 0 0 2.779.735c.052 0 .125-.205.211-.561.551-2.267 1.667-10.641 1.667-10.641l.387-16.215-3.722-8.064-.508-1.1a6.746 6.746 0 0 1-1.614.785 5.679 5.679 0 0 1-4.788-.393c-.949-.551-1.983.65-2.972 2.624-2.38 4.753-4.492 13.982-4.492 13.982l-4.387 10.81a3.806 3.806 0 0 0-.3.285c-.619.66-1.786 2.283.996 3.083z" data-name="Path 4640" transform="translate(-171.39 475.327)"/>
            <path id="prefix__Path_4641" d="M470.935 254.323a20.393 20.393 0 0 0-.1 4.125 48.333 48.333 0 0 0 .737 5.826 2.231 2.231 0 0 0 .1.356c1.911-.838 3.429-1.452 3.429-1.452l-1.271-4.556c.551-2.267 1.667-10.641 1.667-10.641l.387-16.215-3.722-8.064c2.427-.636 4.054-1.322 3.017-1.885a5.743 5.743 0 0 1-2.582-3.6 13.122 13.122 0 0 1-2.226 2.4l-.049.041-.282 2.734-.086.84-.18 1.744s.862 20.6 1.488 21.776.313 3.447-.235 6.11c-.04.144-.067.3-.092.461z" class="prefix__cls-8" data-name="Path 4641" transform="translate(-202.534 483.152)"/>
            <path id="prefix__Path_4642" d="M471.89 244.736c-.548 2.663-.078 7.05.548 10.418s7.285 1.175 8.538 0 4.935-1.723 4.935-1.723.157-15.353 1.332-17.311c.558-.929.693-3.961.678-6.889-.011-2.63-.141-5.176-.19-6.039l-.019-.31s5.092-8.617 5.013-9.243-1.567-.7-1.567-.7-5.64-4.387-6.58-3.838-3.525-.862-3.525-.862-3.276.371-3.953-.26a.344.344 0 0 1-.121-.288c.077-1-3.339-3.144-3.444-3.21 2.878 2.59-1.777 6.58-2.3 7.017l-.049.041-.548 5.317s.862 20.6 1.488 21.776.313 3.44-.236 6.104z" class="prefix__cls-28" data-name="Path 4642" transform="translate(-203.093 491.959)"/>
            <circle id="prefix__Ellipse_1098" cx=".392" cy=".392" r=".392" class="prefix__cls-3" data-name="Ellipse 1098" transform="translate(268.708 713.924)"/>
            <path id="prefix__Path_4643" d="M472.736 212.364l2.38 2.3 3.489-5.822a.344.344 0 0 1-.121-.288c.077-1-3.339-3.144-3.443-3.21 2.877 2.593-1.777 6.583-2.305 7.02z" class="prefix__cls-8" data-name="Path 4643" transform="translate(-204.438 491.4)"/>
            <circle id="prefix__Ellipse_1099" cx=".392" cy=".392" r=".392" class="prefix__cls-8" data-name="Ellipse 1099" transform="translate(269.492 726.457)"/>
            <circle id="prefix__Ellipse_1100" cx=".392" cy=".392" r=".392" class="prefix__cls-3" data-name="Ellipse 1100" transform="translate(269.492 726.301)"/>
            <path id="prefix__Path_4644" d="M472.3 211.491l2.38 2.3 3.489-5.822a.344.344 0 0 1-.121-.288c.077-1-3.339-3.144-3.443-3.21 2.876 2.593-1.778 6.583-2.305 7.02z" class="prefix__cls-28" data-name="Path 4644" transform="translate(-204.158 491.959)"/>
            <rect id="prefix__Rectangle_1915" width="5.451" height="11.519" class="prefix__cls-11" data-name="Rectangle 1915" rx="1.699" transform="matrix(-1 -.023 .023 -1 271.118 725.51)"/>
            <rect id="prefix__Rectangle_1916" width="5.451" height="11.519" class="prefix__cls-8" data-name="Rectangle 1916" rx="1.699" transform="matrix(-1 -.023 .023 -1 271.118 725.51)"/>
            <rect id="prefix__Rectangle_1917" width="5.451" height="11.519" class="prefix__cls-11" data-name="Rectangle 1917" rx="1.699" transform="matrix(-1 -.023 .023 -1 271.147 725.765)"/>
            <circle id="prefix__Ellipse_1101" cx=".857" cy=".857" r=".857" class="prefix__cls-28" data-name="Ellipse 1101" transform="translate(267.844 716.697)"/>
            <path id="prefix__Path_4645" d="M391.676 253.188c1.958.862 14.8-1.41 16.685-1.958s4.622-4.778 3.29-7.833a7.138 7.138 0 0 1 .47-6.032s2.82-6.032 3.447-7.207 1.933-4.6 2.115-5.17a.465.465 0 0 0-.111-.359 13.668 13.668 0 0 0-2.474-2.148c-.553.2-.622-1.383-.6-2.547.013-.652.052-1.172.052-1.172s-.26.265-.685.625c-.155.13-.332.274-.528.423a8.112 8.112 0 0 1-2.469 1.349c-1.88.556-4.543 3.124-4.543 3.124l.783 12.03s-1.8 11.313-3.682 13.506-7.52 2.115-9.4 2.115a2.339 2.339 0 0 0-2.35 1.254z" class="prefix__cls-8" data-name="Path 4645" transform="translate(-152.489 482.802)"/>
            <path id="prefix__Path_4646" d="M391.239 251.879c1.958.862 14.8-1.41 16.685-1.958s4.622-4.778 3.29-7.833a7.138 7.138 0 0 1 .47-6.032s2.82-6.032 3.447-7.207 1.933-4.6 2.115-5.17a.465.465 0 0 0-.111-.359 13.669 13.669 0 0 0-2.474-2.148c-.553.2-.622-1.383-.6-2.547.013-.652.052-1.172.052-1.172s-.26.265-.685.625c-.155.13-.332.274-.528.423a8.111 8.111 0 0 1-2.469 1.349c-1.88.556-4.543 3.124-4.543 3.124l.783 12.03s-1.8 11.313-3.682 13.506-7.52 2.115-9.4 2.115a2.339 2.339 0 0 0-2.35 1.254z" class="prefix__cls-28" data-name="Path 4646" transform="translate(-152.208 483.641)"/>
            <path id="prefix__Path_4647" d="M450.57 218.325s.074.414.2 1.048c.421 2.151 1.427 6.848 2.153 6.666a6.546 6.546 0 0 0 2.077-1.847 13.669 13.669 0 0 0-2.474-2.148c-.553.2-.622-1.383-.6-2.547l-.633-.547z" class="prefix__cls-8" data-name="Path 4647" transform="translate(-190.233 483.083)"/>
            <path id="prefix__Path_4648" d="M451.006 217.453s.074.414.2 1.048c.421 2.151 1.427 6.848 2.153 6.666a6.546 6.546 0 0 0 2.082-1.847 13.67 13.67 0 0 0-2.474-2.148c-.553.2-.622-1.383-.6-2.547l-.633-.547z" class="prefix__cls-28" data-name="Path 4648" transform="translate(-190.512 483.641)"/>
            <path id="prefix__Path_4649" d="M430.9 273.236s3.917-.783 5.013-2.507 8.557-3.212 7.647-1.41-7.647 7.7-7.647 7.7L433 281.2l-3.9-.989-1.641-3.192z" class="prefix__cls-26" data-name="Path 4649" transform="translate(-175.422 450.926)"/>
            <path id="prefix__Path_4650" d="M454.979 294.131s-3.793 1.41-4.364 3.29 4.364-3.29 4.364-3.29z" class="prefix__cls-8" data-name="Path 4650" transform="translate(-190.232 434.5)"/>
            <path id="prefix__Path_4651" d="M461.458 300.227s.345 1.957-4.41 1.8z" class="prefix__cls-8" data-name="Path 4651" transform="translate(-194.384 430.593)"/>
            <path id="prefix__Path_4652" d="M516.552 230.147l1.723-.157a7.242 7.242 0 0 0 3.29 1.41c1.41 0 2.272 1.8 2.272 1.8a25.329 25.329 0 0 0 3.133 1.253c.783.157 2.115.94 1.723 1.253s.078 1.018.783 1.567 1.8 3.368.862 3.76-3.525 1.175-4.23 1.567a1.942 1.942 0 0 1-1.567 0s-4.15-5.405-6.265-4.387a13.574 13.574 0 0 1-5.014 1.018l-2.272-4.778z" class="prefix__cls-8" data-name="Path 4652" transform="translate(-228.956 475.606)"/>
            <path id="prefix__Path_4653" d="M424.262 257.739a2.094 2.094 0 0 0 1.46 1.015 11.069 11.069 0 0 0 4.562-.421s-7.891-2.507-.293-8.6h-2.037l-.678-.257.31-1.623.446-14.632-1.645-.392s-1.324 9.635-1.64 10.81a52.8 52.8 0 0 0-.553 5.718 13.238 13.238 0 0 1-.783 2.82 8.15 8.15 0 0 0 .851 5.562z" class="prefix__cls-28" data-name="Path 4653" transform="translate(-172.709 473.789)"/>
            <path id="prefix__Path_4654" d="M426.981 287.448a2.094 2.094 0 0 0 1.46 1.015 11.07 11.07 0 0 0 4.562-.421s-7.891-2.507-.293-8.6h-2.037l-.678-.257c-1.115 1.973-2.871 5.489-3.014 8.263z" class="prefix__cls-8" data-name="Path 4654" transform="translate(-175.115 444.08)"/>
            <path id="prefix__Path_4655" fill="none" d="M426.109 287.448a2.094 2.094 0 0 0 1.46 1.015 11.07 11.07 0 0 0 4.562-.421s-7.891-2.507-.293-8.6H429.8l-.678-.257c-1.114 1.973-2.87 5.489-3.013 8.263z" data-name="Path 4655" transform="translate(-174.556 444.08)"/>
            <path id="prefix__Path_4656" d="M426.109 287.448a2.094 2.094 0 0 0 1.46 1.015 11.07 11.07 0 0 0 4.562-.421s-7.891-2.507-.293-8.6H429.8l-.678-.257c-1.114 1.973-2.87 5.489-3.013 8.263z" class="prefix__cls-28" data-name="Path 4656" transform="translate(-174.556 444.08)"/>
            <path id="prefix__Path_4657" d="M455.442 214.38a7.129 7.129 0 0 0 8.068-1.532c-.036-.114-.07-.226-.1-.335a8.61 8.61 0 0 1-.316-1.8s-8.852-3.133-7.128 0a2.969 2.969 0 0 1-.524 3.667z" class="prefix__cls-8" data-name="Path 4657" transform="translate(-193.355 488.856)"/>
            <path id="prefix__Path_4658" d="M443.808 191.749v.069c0 .232.016.461.039.686s.056.431.1.641a7.13 7.13 0 0 0 13.735.921c.047-.138.091-.277.128-.418a7.1 7.1 0 0 0 .257-1.9c0-.164-.006-.329-.017-.49a7.128 7.128 0 0 0-14.239.49z" class="prefix__cls-26" data-name="Path 4658" transform="translate(-185.899 504.683)"/>
            <path id="prefix__Path_4659" d="M443.808 191.818a3.089 3.089 0 0 1 .039.686 2.654 2.654 0 0 0 .02.371 1.08 1.08 0 0 0 .077.269 1.332 1.332 0 0 0 1.849.678 2.008 2.008 0 0 0 .556-.729c.658-1.224 1.575-2.632 3.016-2.655a6.86 6.86 0 0 1 1.786.4 1.914 1.914 0 0 0 1.742-.235c.34-.31.5-.841.959-.951s.877.31 1.087.721.376.893.8 1.1c.188.094.409.121.594.221.852.467.461 2.1 1.346 2.367a.666.666 0 0 0 .085.02l.044-.439.24-2.389a7.128 7.128 0 0 0-14.239.49z" class="prefix__cls-8" data-name="Path 4659" transform="translate(-185.899 504.683)"/>
            <path id="prefix__Path_4660" d="M451.193 171.028a2.906 2.906 0 0 1 1.9 1.756 6.945 6.945 0 0 1 .04 1.148 9.125 9.125 0 0 0 .642 2.227 2.475 2.475 0 0 1-.152 2.231c-.147.2-.342.36-.474.566a2.306 2.306 0 0 0-.274 1.038l-.387 3.856c-.994-.185-.552-1.908-1.431-2.388-.185-.1-.4-.128-.593-.222-.424-.211-.59-.695-.8-1.1s-.624-.831-1.088-.72-.618.641-.958.951a1.912 1.912 0 0 1-1.743.234 6.9 6.9 0 0 0-1.785-.4c-1.442.024-2.358 1.432-3.016 2.655a1.992 1.992 0 0 1-.556.73 1.339 1.339 0 0 1-1.925-.949c-.067-.46.076-.973-.189-1.362s-.839-.473-1.289-.681a2.889 2.889 0 0 1-1.309-3.156 5.477 5.477 0 0 0 .2-2.585c-.1-.287-.265-.548-.355-.837a2.262 2.262 0 0 1 .805-2.268 6.585 6.585 0 0 1 2.324-1.167 26.739 26.739 0 0 1 6.654-1.555c1-.065 2.3-.376 3.09.244a10.555 10.555 0 0 0 2.669 1.754z" class="prefix__cls-11" data-name="Path 4660" transform="translate(-180.621 514.763)"/>
            <circle id="prefix__Ellipse_1102" cx=".392" cy=".392" r=".392" class="prefix__cls-8" data-name="Ellipse 1102" transform="translate(268.317 707.736)"/>
            <circle id="prefix__Ellipse_1103" cx=".392" cy=".392" r=".392" class="prefix__cls-3" data-name="Ellipse 1103" transform="translate(268.317 707.579)"/>
            <circle id="prefix__Ellipse_1104" cx=".392" cy=".392" r=".392" class="prefix__cls-8" data-name="Ellipse 1104" transform="translate(270.824 732.332)"/>
            <circle id="prefix__Ellipse_1105" cx=".392" cy=".392" r=".392" class="prefix__cls-3" data-name="Ellipse 1105" transform="translate(270.824 732.176)"/>
            <circle id="prefix__Ellipse_1106" cx=".392" cy=".392" r=".392" class="prefix__cls-8" data-name="Ellipse 1106" transform="translate(269.492 738.834)"/>
            <circle id="prefix__Ellipse_1107" cx=".392" cy=".392" r=".392" class="prefix__cls-3" data-name="Ellipse 1107" transform="translate(269.492 738.677)"/>
            <path id="prefix__Path_4661" d="M438.98 254.27s-.862 5.851 0 6.869 0-6.869 0-6.869z" class="prefix__cls-8" data-name="Path 4661" transform="translate(-182.559 460.046)"/>
            <path id="prefix__Path_4662" d="M506.949 284.522a8.849 8.849 0 0 1 0 6.942c-1.645 3.4-2.663 4.778-2.115 6.947s2.115-13.889 2.115-13.889z" class="prefix__cls-8" data-name="Path 4662" transform="translate(-224.914 440.658)"/>
            <path id="prefix__Path_4663" d="M292.909 457.437c2.428 1.645 6.11.862 6.11.862s5.562-2.663 7.207-2.663 5.64-1.645 5.64-1.645l-.135-1.109c-1.623.313-5.314 1.057-5.74 1.423-.548.47-7.285 2.742-7.285 2.742s-4.587-.573-5.864-2.458c-.842.869-1.204 1.988.067 2.848z" class="prefix__cls-8" data-name="Path 4663" transform="translate(-88.658 332.759)"/>
            <g id="prefix__Group_750" class="prefix__cls-22" data-name="Group 750" transform="translate(254.951 687.814)">
                <path id="prefix__Path_4664" d="M484.457 180.727v-.255c.007.1.008.2.007.293-.004-.012-.006-.025-.007-.038z" data-name="Path 4664" transform="translate(-466.9 -180.472)"/>
                <path id="prefix__Path_4665" d="M437.437 194.323c.45.207 1.016.281 1.288.681s.122.9.189 1.362a1.339 1.339 0 0 0 1.925.949 1.992 1.992 0 0 0 .556-.73c.658-1.223 1.575-2.631 3.016-2.656a6.9 6.9 0 0 1 1.785.4 1.912 1.912 0 0 0 1.743-.234c.34-.31.5-.842.957-.951s.877.31 1.088.72.376.893.8 1.1c.189.094.409.121.593.222.879.48.437 2.2 1.431 2.388l.387-3.856a2.306 2.306 0 0 1 .274-1.038c.132-.206.327-.369.474-.566a1.725 1.725 0 0 0 .322-.829 2 2 0 0 1-.322 1.456c-.147.2-.342.36-.474.566a2.305 2.305 0 0 0-.274 1.038l-.387 3.856c-.994-.185-.552-1.908-1.431-2.388-.185-.1-.4-.128-.593-.222-.424-.211-.59-.695-.8-1.1s-.624-.831-1.088-.72-.617.641-.957.951a1.912 1.912 0 0 1-1.743.234 6.9 6.9 0 0 0-1.785-.4c-1.442.024-2.358 1.432-3.016 2.655a1.992 1.992 0 0 1-.556.73 1.339 1.339 0 0 1-1.925-.949c-.067-.46.076-.973-.189-1.362s-.839-.473-1.288-.681a2.78 2.78 0 0 1-1.344-2.843 2.556 2.556 0 0 0 1.344 2.217z" data-name="Path 4665" transform="translate(-435.898 -187.405)"/>
                <path id="prefix__Path_4666" d="M435.647 181.08c.09.289.258.55.355.837a2.41 2.41 0 0 1 .089 1.03 2 2 0 0 0-.089-.4c-.1-.287-.265-.548-.355-.837a1.733 1.733 0 0 1-.046-.817 1.634 1.634 0 0 0 .046.191z" data-name="Path 4666" transform="translate(-435.573 -180.739)"/>
            </g>
            <path id="prefix__Path_4667" d="M482.573 264.427c1.8-.395 6.032-1.642 6.032-1.642l.757-.152c-.011-2.63-.141-5.176-.19-6.039h-.019a29.143 29.143 0 0 0-4.465 1.8c-.862.627-3.525.47-3.525.47a12.073 12.073 0 0 0-7.6 4.073c-3.445 3.843 7.209 1.884 9.01 1.49z" class="prefix__cls-8" data-name="Path 4667" transform="translate(-204.533 458.557)"/>
            <path id="prefix__Path_4668" d="M500.179 255.046a1.045 1.045 0 0 1 .235 1.756 7.653 7.653 0 0 1-3.677 1.869c-2.219.223-7.559 1.294-8.09 1.4-.029.006-.056.012-.084.021-.44.129-4.293 1.258-5.99 1.63-1.8.395-12.455 2.353-9.008-1.485a12.183 12.183 0 0 1 7.522-4.067.981.981 0 0 1 .138 0c.4.019 2.679.1 3.464-.473a7.393 7.393 0 0 1 1.3-.646 24.891 24.891 0 0 1 5.3-1.527l3.685-.642a1.061 1.061 0 0 1 .621.079z" class="prefix__cls-26" data-name="Path 4668" transform="translate(-204.533 460.947)"/>
            <path id="prefix__Path_4669" d="M517.425 230.147l1.723-.157a7.243 7.243 0 0 0 3.29 1.41c1.41 0 2.272 1.8 2.272 1.8a25.331 25.331 0 0 0 3.133 1.253c.783.157 2.115.94 1.723 1.253s.078 1.018.783 1.567 1.8 3.368.862 3.76-3.525 1.175-4.23 1.567a1.943 1.943 0 0 1-1.567 0s-4.15-5.405-6.266-4.387a13.575 13.575 0 0 1-5.014 1.018l-2.272-4.778z" class="prefix__cls-28" data-name="Path 4669" transform="translate(-229.514 475.606)"/>
        </g>
    </g>
</svg>
