<svg xmlns="http://www.w3.org/2000/svg" width="404.555" height="302.63" viewBox="0 0 404.555 302.63">
    <defs>
        <style>
            .prefix__cls-3{fill:#ffb8b8}.prefix__cls-4{fill:#ffbd5c}.prefix__cls-5{fill:#2f2e41}.prefix__cls-6{opacity:.2}.prefix__cls-7{fill:#e6e6e6}
        </style>
    </defs>
    <g id="prefix__Group_759" data-name="Group 759" transform="translate(-84.946 -628.269)">
        <g id="prefix__Group_746" data-name="Group 746">
            <path id="prefix__Path_4426" fill="#7a81ea" d="M-5691.03 3062.613c-37.15 4.845-40.009-9.091-72.335 15.212s-20.395 54.154-55.465 72.2-69.216-13.388-84.816 0-9.071 36 0 70.225-3.957 41 36.284 66.682 65.951 23.547 124.681 36.05 72.076 17.764 110.237 13.961 35.677-7.293 42.408-29.174-20.279-33.862-15.484-58.347-15.021-17.322 0-36.779 45.065-20.239 60.087-41.052 3.553-43.526-14.56-63.14-22.388-36.1-54.771-50.012-39.116-.671-76.266 4.174z" data-name="Path 4426" opacity="0.1" transform="translate(6028 -2407.264)"/>
            <path id="prefix__Path_4425" fill="#7a81ea" d="M-5673.247 3062.613c-40.125 4.845-43.214-9.091-78.128 15.211s-22.029 54.154-59.908 72.2-74.76-13.388-91.609 0-9.8 36 0 70.225-4.274 41 39.19 66.683 71.234 23.547 134.667 36.05 77.849 17.764 119.067 13.961 38.534-7.293 45.8-29.174-21.9-33.862-16.724-58.347-16.225-17.322 0-36.78 48.675-20.239 64.9-41.051 3.837-43.526-15.726-63.14-24.182-36.1-59.159-50.012-42.245-.671-82.37 4.174z" data-name="Path 4425" opacity="0.08" transform="translate(5998 -2407.264)"/>
            <g id="prefix__Group_743" data-name="Group 743" transform="translate(106 628.27)">
                <path id="prefix__Path_4401" d="M621.912 530.718a8.151 8.151 0 0 1-12.8-2.187l-7.539-14.475 3-6.5 16.164 10.344a8.15 8.15 0 0 1 1.174 12.817z" class="prefix__cls-3" data-name="Path 4401" transform="translate(-423.788 -340.576)"/>
                <path id="prefix__Path_4402" d="M520.241 420.265l-61.8-32.1a2.263 2.263 0 0 1-1.153-1.463l-13.406-54.031a12.969 12.969 0 0 1 8.3-15.365l3.23-1.13a5.574 5.574 0 0 1 7.212 3.769l13.214 47.569a2.263 2.263 0 0 0 .736 1.137l50.353 41.721a2.262 2.262 0 0 1 .424 3.02l-4.2 6.141a2.263 2.263 0 0 1-2.91.732z" class="prefix__cls-4" data-name="Path 4402" transform="translate(-344.732 -244.71)"/>
                <path id="prefix__Path_4403" d="M88.146 441.53l-26.494-6.5 1.5-15 26.494 12z" class="prefix__cls-3" data-name="Path 4403" transform="translate(-30.833 -210.063)"/>
                <path id="prefix__Path_4404" d="M420.556 265.02c-29.974-15.78-61.349-23.7-94.98-19 10.137-17.181 17.666-33.065 17.163-44.956a23.406 23.406 0 0 1 9.183-19.94 28.414 28.414 0 0 1 16.934-5.589 23.27 23.27 0 0 1 17.236-.685 18.124 18.124 0 0 1 10.512 10.41c1.15 2.785 3.625 5.226 7.215 7.375a20.247 20.247 0 0 1 7.812 8.162c2.365 4.707 2.528 9.445-.572 14.23 11.608 12.197 11.641 30.519 9.497 49.993z" class="prefix__cls-5" data-name="Path 4404" transform="translate(-285.759 -173.523)"/>
                <path id="prefix__Path_4405" d="M393.368 598.86a14.918 14.918 0 0 1-16.763 4.394c-22.043 2.038-39.906-13.477-59.036-28.21l4.5-12-37.492-26.494 16-10 34.493-13 58.03 65.9a14.918 14.918 0 0 1 .265 19.411z" class="prefix__cls-5" data-name="Path 4405" transform="translate(-265.254 -343.577)"/>
                <circle id="prefix__Ellipse_1074" cx="20.995" cy="20.995" r="20.995" class="prefix__cls-3" data-name="Ellipse 1074" transform="translate(71.311 10.015)"/>
                <path id="prefix__Path_4406" d="M426.071 291.549l-24.495 2.5c1.314-14.322 1.832-27.537 0-37.492h24.495c-4.652 15.85-4.244 27.143 0 34.992z" class="prefix__cls-3" data-name="Path 4406" transform="translate(-323.767 -215.049)"/>
                <path id="prefix__Path_4407" d="M348.567 382.766l-39.991-21.5c14.423-16.72 20.522-42.822 23.361-72.6.48-5.035 4.332-4.864 9.382-5.135 5.331-.286 10.571-3.108 15.247-.25l13.5 15 6.5-7 12.77 5.473a5.877 5.877 0 0 1 3.346 6.979c-.237 24.086-3.155 45.254-15.616 56.033l-10.5 11z" class="prefix__cls-4" data-name="Path 4407" transform="translate(-277.257 -227.783)"/>
                <path id="prefix__Path_4408" d="M388.53 637.626s-19.075-17.785-32.033-16.891" class="prefix__cls-6" data-name="Path 4408" transform="translate(-301.222 -397.161)"/>
                <path id="prefix__Path_4409" d="M93.648 449.275l-4.526 26.9-15.067-.389 6.045-28.251z" class="prefix__cls-3" data-name="Path 4409" transform="translate(-37.035 -223.816)"/>
                <path id="prefix__Path_4410" d="M346.859 698.508a8.239 8.239 0 0 1-2.825-.409l-24.314-2.044a11.445 11.445 0 0 1-5.77-14.213l2.717-9.534c5.046 2.646 10.295 2.27 15.247-1.75l21.5 15.065a8.239 8.239 0 0 1-6.552 12.885z" class="prefix__cls-5" data-name="Path 4410" transform="translate(-279.598 -422.094)"/>
                <path id="prefix__Path_4411" d="M259.914 620.506a8.239 8.239 0 0 1 .409-2.825l2.044-24.314a11.445 11.445 0 0 1 14.213-5.77l9.534 2.717c-2.646 5.046-2.27 10.295 1.75 15.247l-15.065 21.5a8.239 8.239 0 0 1-12.884-6.553z" class="prefix__cls-5" data-name="Path 4411" transform="translate(-252.919 -380.259)"/>
                <path id="prefix__Path_4412" d="M303.738 529.9l-17.5-1 .5-30.493-11.9.686c-17.458 1.007-31.642-14.5-28.476-31.7q.1-.531.215-1.065a32.931 32.931 0 0 1 13.544-19.828l18.122-12.574 14.747 6.249 11.684-6.273a20.276 20.276 0 0 1 19.837 2.271 20.276 20.276 0 0 1 6.923 23.871z" class="prefix__cls-5" data-name="Path 4412" transform="translate(-245.924 -302.937)"/>
                <path id="prefix__Path_4413" d="M334.488 513.557s-8 16-7 25.495" class="prefix__cls-6" data-name="Path 4413" transform="translate(-286.672 -343.577)"/>
                <path id="prefix__Path_4414" d="M155.152 179.535l4.38 20.1 26.614 22.894-23.496-23.998z" class="prefix__cls-6" data-name="Path 4414" transform="translate(-77.593 -89.787)"/>
                <path id="prefix__Path_4415" d="M106.152 198.535l8 32.493 23.495 8.5-22-11z" class="prefix__cls-6" data-name="Path 4415" transform="translate(-53.087 -99.289)"/>
                <path id="prefix__Path_4416" d="M432.566 213.052c-15.474-7.119-32.969-9.149-48.49-1.5l2-18 33.993-5.5z" class="prefix__cls-5" data-name="Path 4416" transform="translate(-315.015 -180.792)"/>
                <path id="prefix__Path_4417" d="M523.575 526.057a2.5 2.5 0 0 0-2.5 2.5v92.98a2.5 2.5 0 0 0 2.5 2.5H735.03a2.5 2.5 0 0 0 2.5-2.5v-92.98a2.5 2.5 0 0 0-2.5-2.5z" class="prefix__cls-7" data-name="Path 4417" transform="translate(-383.53 -349.828)"/>
                <path id="prefix__Path_4418" fill="#fff" d="M528.325 530.557a2.753 2.753 0 0 0-2.749 2.749v87.981a2.753 2.753 0 0 0 2.749 2.749h206.456a2.753 2.753 0 0 0 2.749-2.749v-87.981a2.753 2.753 0 0 0-2.749-2.749z" data-name="Path 4418" transform="translate(-385.78 -352.079)"/>
                <path id="prefix__Path_4419" d="M519.912 500.718a8.15 8.15 0 0 1-12.8-2.187l-7.539-14.475 3-6.5 16.164 10.344a8.15 8.15 0 0 1 1.174 12.817z" class="prefix__cls-3" data-name="Path 4419" transform="translate(-372.777 -325.573)"/>
                <path id="prefix__Path_4420" d="M418.241 390.265l-61.8-32.1a2.263 2.263 0 0 1-1.153-1.463l-13.406-54.031a12.969 12.969 0 0 1 8.3-15.365l3.23-1.13a5.574 5.574 0 0 1 7.212 3.769l13.214 47.569a2.263 2.263 0 0 0 .736 1.137l50.353 41.721a2.262 2.262 0 0 1 .424 3.02l-4.2 6.141a2.263 2.263 0 0 1-2.91.731z" class="prefix__cls-4" data-name="Path 4420" transform="translate(-293.721 -229.707)"/>
                <circle id="prefix__Ellipse_1075" cx="14.618" cy="14.618" r="14.618" class="prefix__cls-4" data-name="Ellipse 1075" transform="translate(163.329 192.695)"/>
                <path id="prefix__Path_4421" d="M667 568.744a2.436 2.436 0 0 0 0 4.873h114.856a2.436 2.436 0 0 0 0-4.873z" class="prefix__cls-7" data-name="Path 4421" transform="translate(-455.287 -371.176)"/>
                <path id="prefix__Path_4422" d="M667 597.987a2.436 2.436 0 0 0 0 4.873h49.424a2.436 2.436 0 0 0 0-4.873z" class="prefix__cls-7" data-name="Path 4422" transform="translate(-455.287 -385.801)"/>
                <path id="prefix__Path_4423" d="M576.1 644.739c-1.853 0-3.362 1.093-3.362 2.436s1.508 2.436 3.362 2.436h158.47c1.853 0 3.362-1.093 3.362-2.436s-1.508-2.436-3.362-2.436z" class="prefix__cls-7" data-name="Path 4423" transform="translate(-409.368 -409.182)"/>
                <path id="prefix__Path_4424" d="M576.1 673.982c-1.853 0-3.362 1.093-3.362 2.436s1.508 2.436 3.362 2.436h158.47c1.853 0 3.362-1.093 3.362-2.436s-1.508-2.436-3.362-2.436z" class="prefix__cls-7" data-name="Path 4424" transform="translate(-409.368 -423.807)"/>
            </g>
        </g>
    </g>
</svg>
