<svg width="563" height="508" viewBox="0 0 563 508" fill="none" xmlns="http://www.w3.org/2000/svg">
<g clip-path="url(#clip0)">
<path d="M4.10197 343.249C4.10197 343.249 -26.0467 390.332 72.7865 391.14C72.7865 391.14 74.2401 350.174 41.9323 333.296C35.6501 330 28.3766 329.121 21.4896 330.826C14.6027 332.532 8.58061 336.703 4.5642 342.55L4.10197 343.249Z" fill="#009DFF"/>
<path d="M4.327 342.458C4.327 342.458 54.9479 352.43 72.7865 391.14" stroke="#535461" stroke-miterlimit="10"/>
<path d="M77.2021 384.805C77.2021 384.805 44.6996 342.817 47.6677 301.425C48.8841 284.055 44.803 266.703 35.3758 252.05C30.8901 245.113 25.7781 238.6 20.1038 232.595" stroke="#535461" stroke-width="2" stroke-miterlimit="10"/>
<path d="M21.8068 206.506C24.0754 212.318 20.1282 233.288 20.1282 233.288C20.1282 233.288 3.01936 220.526 0.750757 214.714C0.152589 213.32 -0.15903 211.821 -0.165545 210.305C-0.17206 208.788 0.12666 207.286 0.712833 205.888C1.299 204.49 2.16065 203.223 3.24646 202.165C4.33228 201.106 5.62007 200.277 7.03318 199.726C8.44629 199.175 9.95582 198.914 11.4719 198.958C12.988 199.003 14.4797 199.352 15.8581 199.984C17.2365 200.617 18.4736 201.52 19.4955 202.641C20.5175 203.761 21.3035 205.075 21.8068 206.506Z" fill="#009DFF"/>
<path d="M51.7913 231.908C50.5384 238.024 35.8198 253.479 35.8198 253.479C35.8198 253.479 28.3876 233.476 29.6405 227.336C29.9066 225.851 30.4673 224.435 31.2893 223.171C32.1114 221.906 33.1783 220.819 34.4272 219.973C35.676 219.127 37.0816 218.54 38.5611 218.245C40.0407 217.95 41.5642 217.955 43.042 218.258C44.5198 218.561 45.922 219.157 47.1659 220.01C48.4099 220.863 49.4705 221.956 50.2853 223.225C51.1 224.495 51.6525 225.914 51.9101 227.4C52.1677 228.886 52.1252 230.408 51.7852 231.877L51.7913 231.908Z" fill="#009DFF"/>
<path d="M72.5189 287.235C68.3466 291.88 47.844 297.796 47.844 297.796C47.844 297.796 51.5298 276.778 55.696 272.133C57.7116 269.949 60.5063 268.646 63.4753 268.507C66.4443 268.368 69.3488 269.403 71.5602 271.388C73.7716 273.373 75.1121 276.149 75.2915 279.115C75.4709 282.081 74.4749 284.998 72.5189 287.235Z" fill="#009DFF"/>
<path d="M78.7712 332.633C75.4444 337.917 56.2312 347.225 56.2312 347.225C56.2312 347.225 56.3103 325.891 59.6371 320.607C60.4121 319.319 61.4366 318.197 62.6506 317.309C63.8646 316.421 65.2436 315.784 66.707 315.436C68.1703 315.087 69.6885 315.034 71.1726 315.279C72.6568 315.525 74.077 316.064 75.3501 316.865C76.6233 317.666 77.7237 318.713 78.587 319.944C79.4503 321.176 80.059 322.567 80.3776 324.037C80.6963 325.506 80.7183 327.025 80.4424 328.503C80.1666 329.981 79.5984 331.39 78.7712 332.646V332.633Z" fill="#009DFF"/>
<path d="M14.1313 263.232C19.8849 265.664 40.9592 262.271 40.9592 262.271C40.9592 262.271 28.6856 244.81 22.932 242.378C21.5622 241.8 20.092 241.498 18.6054 241.488C17.1187 241.478 15.6447 241.761 14.2675 242.321C12.8903 242.881 11.6369 243.706 10.5788 244.75C9.52077 245.794 8.67877 247.037 8.1009 248.406C7.52304 249.775 7.22063 251.245 7.21095 252.731C7.20126 254.217 7.48449 255.691 8.04446 257.067C8.60443 258.444 9.43018 259.697 10.4746 260.755C11.5189 261.812 12.7615 262.654 14.1313 263.232Z" fill="#009DFF"/>
<path d="M22.1352 316.23C28.3511 316.838 47.4426 307.286 47.4426 307.286C47.4426 307.286 30.492 294.324 24.2761 293.728C22.7773 293.545 21.2571 293.665 19.8052 294.079C18.3533 294.493 16.9991 295.194 15.8225 296.14C14.646 297.086 13.6709 298.258 12.9548 299.587C12.2387 300.916 11.796 302.375 11.653 303.877C11.51 305.38 11.6696 306.896 12.1222 308.336C12.5748 309.776 13.3113 311.11 14.2883 312.261C15.2654 313.412 16.4631 314.355 17.8108 315.036C19.1585 315.716 20.6289 316.12 22.1352 316.224V316.23Z" fill="#009DFF"/>
<path d="M36.9693 366.669C42.9967 368.304 63.4262 362.127 63.4262 362.127C63.4262 362.127 48.9084 346.484 42.8811 344.854C41.4382 344.434 39.926 344.305 38.4329 344.476C36.9397 344.647 35.4956 345.113 34.185 345.849C32.8743 346.584 31.7234 347.573 30.7996 348.758C29.8758 349.943 29.1976 351.3 28.8046 352.75C28.4116 354.2 28.3118 355.714 28.5109 357.203C28.7101 358.692 29.2042 360.127 29.9644 361.423C30.7246 362.719 31.7357 363.85 32.9384 364.751C34.1412 365.652 35.5115 366.304 36.9693 366.669Z" fill="#009DFF"/>
<path opacity="0.25" d="M21.8068 206.506C24.0754 212.318 20.1282 233.288 20.1282 233.288C20.1282 233.288 3.01936 220.526 0.750757 214.714C0.152589 213.32 -0.15903 211.821 -0.165545 210.305C-0.17206 208.788 0.12666 207.286 0.712833 205.888C1.299 204.49 2.16065 203.223 3.24646 202.165C4.33228 201.106 5.62007 200.277 7.03318 199.726C8.44629 199.175 9.95582 198.914 11.4719 198.958C12.988 199.003 14.4797 199.352 15.8581 199.984C17.2365 200.617 18.4736 201.52 19.4955 202.641C20.5175 203.761 21.3035 205.075 21.8068 206.506Z" fill="black"/>
<path opacity="0.25" d="M51.7913 231.908C50.5384 238.024 35.8198 253.479 35.8198 253.479C35.8198 253.479 28.3876 233.476 29.6405 227.336C29.9066 225.851 30.4673 224.435 31.2893 223.171C32.1114 221.906 33.1783 220.819 34.4272 219.973C35.676 219.127 37.0816 218.54 38.5611 218.245C40.0407 217.95 41.5642 217.955 43.042 218.258C44.5198 218.561 45.922 219.157 47.1659 220.01C48.4099 220.863 49.4705 221.956 50.2853 223.225C51.1 224.495 51.6525 225.914 51.9101 227.4C52.1677 228.886 52.1252 230.408 51.7852 231.877L51.7913 231.908Z" fill="black"/>
<path opacity="0.25" d="M72.5189 287.235C68.3466 291.88 47.844 297.796 47.844 297.796C47.844 297.796 51.5298 276.778 55.696 272.133C57.7116 269.949 60.5063 268.646 63.4753 268.507C66.4443 268.368 69.3488 269.403 71.5602 271.388C73.7716 273.373 75.1121 276.149 75.2915 279.115C75.4709 282.081 74.4749 284.998 72.5189 287.235Z" fill="black"/>
<path opacity="0.25" d="M78.7712 332.633C75.4444 337.917 56.2312 347.225 56.2312 347.225C56.2312 347.225 56.3103 325.891 59.6371 320.607C60.4121 319.319 61.4366 318.197 62.6506 317.309C63.8646 316.421 65.2436 315.784 66.707 315.436C68.1703 315.087 69.6885 315.034 71.1726 315.279C72.6568 315.525 74.077 316.064 75.3501 316.865C76.6233 317.666 77.7237 318.713 78.587 319.944C79.4503 321.176 80.059 322.567 80.3776 324.037C80.6963 325.506 80.7183 327.025 80.4424 328.503C80.1666 329.981 79.5984 331.39 78.7712 332.646V332.633Z" fill="black"/>
<path opacity="0.25" d="M14.1313 263.232C19.8849 265.664 40.9592 262.271 40.9592 262.271C40.9592 262.271 28.6856 244.81 22.932 242.378C21.5622 241.8 20.092 241.498 18.6054 241.488C17.1187 241.478 15.6447 241.761 14.2675 242.321C12.8903 242.881 11.6369 243.706 10.5788 244.75C9.52077 245.794 8.67877 247.037 8.1009 248.406C7.52304 249.775 7.22063 251.245 7.21095 252.731C7.20126 254.217 7.48449 255.691 8.04446 257.067C8.60443 258.444 9.43018 259.697 10.4746 260.755C11.5189 261.812 12.7615 262.654 14.1313 263.232Z" fill="black"/>
<path opacity="0.25" d="M22.1352 316.23C28.3511 316.838 47.4426 307.286 47.4426 307.286C47.4426 307.286 30.492 294.324 24.2761 293.728C22.7773 293.545 21.2571 293.665 19.8052 294.079C18.3533 294.493 16.9991 295.194 15.8225 296.14C14.646 297.086 13.6709 298.258 12.9548 299.587C12.2387 300.916 11.796 302.375 11.653 303.877C11.51 305.38 11.6696 306.896 12.1222 308.336C12.5748 309.776 13.3113 311.11 14.2883 312.261C15.2654 313.412 16.4631 314.355 17.8108 315.036C19.1585 315.716 20.6289 316.12 22.1352 316.224V316.23Z" fill="black"/>
<path opacity="0.25" d="M36.9693 366.669C42.9967 368.304 63.4262 362.127 63.4262 362.127C63.4262 362.127 48.9084 346.484 42.8811 344.854C41.4382 344.434 39.926 344.305 38.4329 344.476C36.9397 344.647 35.4956 345.113 34.185 345.849C32.8743 346.584 31.7234 347.573 30.7996 348.758C29.8758 349.943 29.1976 351.3 28.8046 352.75C28.4116 354.2 28.3118 355.714 28.5109 357.203C28.7101 358.692 29.2042 360.127 29.9644 361.423C30.7246 362.719 31.7357 363.85 32.9384 364.751C34.1412 365.652 35.5115 366.304 36.9693 366.669Z" fill="black"/>
<path opacity="0.1" d="M281.674 304.192C270.118 303.936 257.705 304.514 248.521 309.056C231.491 317.458 233.784 334.5 222.679 346.325C213.3 356.309 195.376 361.495 177.994 364.802C149.676 370.195 119.977 372.214 91.8537 378.008C75.2741 381.425 58.816 386.392 47.4548 394.892C36.0935 403.391 30.9968 416.068 38.6784 426.124C45.7822 435.42 61.4313 440.394 75.6816 445.209C89.9318 450.024 105.027 456.341 108.993 466.379C111.201 471.967 109.559 477.992 112.137 483.506C117.222 494.389 136.265 499.527 153.374 502.305C167.04 504.524 180.931 506.16 194.932 507.169C206.117 507.99 217.557 508.422 228.536 506.823C238.042 505.436 246.842 502.567 255.959 500.36C313.885 486.26 380.508 498.457 439.589 486.516C450.342 484.357 460.918 481.317 469.068 476.344C475.15 472.648 479.651 468.027 483.44 463.236C493.086 451.076 498.372 437.439 498.779 423.765C499.022 415.569 497.563 407.289 499.807 399.215C502.161 390.812 508.443 383.085 511.789 374.822C517.871 359.805 513.613 343.206 500.373 330.214C495.646 325.425 489.852 321.825 483.465 319.708C478.112 317.993 472.128 317.336 466.234 316.668C449.813 314.886 433.178 313.099 416.611 314.102C404.824 314.819 393.286 316.941 381.463 317.324C364.871 317.865 351.873 314.041 336.832 310.448C319.529 306.35 300.06 304.593 281.674 304.192Z" fill="#009DFF"/>
<path d="M72.8412 179.9V342.52L289.289 300.489L285.153 175.766L72.8412 179.9Z" fill="#DBACA2"/>
<path d="M479.712 371.636V425.382L250.857 492.225L248.521 491.015L67.5012 397.129V174.903L291.527 167.667L292.908 291.01L283.943 293.771L280.494 178.405L83.351 185.238L81.9765 352.338L253.612 427.449L253.746 427.419L479.712 371.636Z" fill="#E8C2B8"/>
<path opacity="0.1" d="M479.712 371.636V425.383L250.857 492.225L248.521 491.015L253.746 427.419L479.712 371.636Z" fill="black"/>
<path d="M203.812 293.594C203.812 293.594 93.0093 304.648 82.2502 320.656C71.491 336.665 82.1589 356.303 82.1589 356.303L253.454 430.721L485.751 370.773C485.751 370.773 479.548 328.736 460.249 323.915C440.951 319.094 287.215 286.019 287.215 286.019C287.215 286.019 225.178 282.225 203.812 293.594Z" fill="#EBECF0"/>
<path d="M82.1468 320.808L256.89 381.102C256.89 381.102 443.274 324.608 469.677 329.928C469.677 329.928 339.296 283.277 287.215 285.308C245.711 286.925 202.255 293.734 202.255 293.734C202.255 293.734 86.9759 305.31 82.1468 320.808Z" fill="#F8F9FA"/>
<path opacity="0.05" d="M265.782 283.769C265.782 283.769 282.812 275.549 294.264 276.352C305.717 277.154 307.706 269.938 307.706 269.938" fill="black"/>
<path d="M192.11 489.003C190.693 487.683 189.361 486.127 188.948 484.236C188.534 482.345 189.343 480.071 191.155 479.372C193.181 478.594 195.352 479.98 196.994 481.421C198.636 482.862 200.522 484.461 202.669 484.157C201.563 483.155 200.736 481.883 200.268 480.466C199.8 479.049 199.707 477.534 199.999 476.071C200.093 475.467 200.349 474.899 200.741 474.429C201.866 473.213 203.909 473.742 205.253 474.691C209.511 477.731 210.727 483.525 210.758 488.766C211.19 486.875 210.825 484.905 210.837 482.965C210.849 481.026 211.378 478.88 213.014 477.834C214.033 477.287 215.179 477.018 216.335 477.056C218.263 476.983 220.41 477.177 221.724 478.588C223.36 480.339 222.94 483.276 221.511 485.203C220.082 487.13 217.922 488.34 215.934 489.672C214.337 490.623 212.975 491.922 211.95 493.472C211.828 493.688 211.728 493.916 211.652 494.152H199.579C196.868 492.781 194.356 491.048 192.11 489.003Z" fill="#009DFF"/>
<path d="M470.99 434.8C470.05 434.033 469.364 432.998 469.026 431.833C468.77 430.653 469.275 429.243 470.4 428.793C471.659 428.313 473.009 429.182 474.05 430.07C475.09 430.957 476.239 431.961 477.577 431.772C476.889 431.149 476.375 430.358 476.084 429.477C475.793 428.596 475.735 427.654 475.917 426.744C475.975 426.368 476.135 426.015 476.379 425.723C477.078 424.975 478.35 425.297 479.189 425.887C481.853 427.759 482.595 431.359 482.613 434.636C482.881 433.462 482.656 432.234 482.662 431.03C482.668 429.827 482.996 428.489 484.018 427.845C484.652 427.503 485.366 427.335 486.086 427.358C487.302 427.316 488.616 427.437 489.437 428.313C490.453 429.401 490.191 431.225 489.303 432.423C488.415 433.62 487.071 434.374 485.837 435.201C484.844 435.793 483.998 436.602 483.361 437.566C483.287 437.7 483.226 437.84 483.179 437.986H475.631C473.948 437.138 472.387 436.066 470.99 434.8Z" fill="#009DFF"/>
</g>
<defs>
<clipPath id="clip0">
<rect width="563" height="508" fill="white"/>
</clipPath>
</defs>
</svg>
