<svg width="28" height="31" viewBox="0 0 28 31" fill="none" xmlns="http://www.w3.org/2000/svg">
    <mask id="path-1-inside-1" fill="white">
        <path fill-rule="evenodd" clip-rule="evenodd"
            d="M20.5162 0.711281C24.4226 3.05952 27.0361 7.33887 27.0361 12.2286C27.0361 19.645 21.024 25.6571 13.6076 25.6571C6.19127 25.6571 0.179138 19.645 0.179138 12.2286C0.179138 7.56268 2.55888 3.45254 6.17085 1.04574C3.91534 3.06757 2.49622 6.00358 2.49622 9.27105C2.49622 15.3698 7.44025 20.3138 13.539 20.3138C19.6378 20.3138 24.5818 15.3698 24.5818 9.27105C24.5818 5.81862 22.9975 2.73623 20.5162 0.711281Z" />
    </mask>
    <path
        d="M20.5162 0.711281L19.2517 2.26078L21.5467 -1.00285L20.5162 0.711281ZM6.17085 1.04574L5.06182 -0.618612L7.50581 2.53499L6.17085 1.04574ZM25.0361 12.2286C25.0361 8.06951 22.8156 4.42705 19.4858 2.42541L21.5467 -1.00285C26.0296 1.69199 29.0361 6.60822 29.0361 12.2286H25.0361ZM13.6076 23.6571C19.9194 23.6571 25.0361 18.5404 25.0361 12.2286H29.0361C29.0361 20.7495 22.1285 27.6571 13.6076 27.6571V23.6571ZM2.17914 12.2286C2.17914 18.5404 7.29584 23.6571 13.6076 23.6571V27.6571C5.0867 27.6571 -1.82086 20.7495 -1.82086 12.2286H2.17914ZM7.27988 2.71009C4.20081 4.7618 2.17914 8.25954 2.17914 12.2286H-1.82086C-1.82086 6.86581 0.916949 2.14329 5.06182 -0.618612L7.27988 2.71009ZM7.50581 2.53499C5.65563 4.19349 4.49622 6.59554 4.49622 9.27105H0.496225C0.496225 5.41162 2.17506 1.94165 4.83589 -0.443514L7.50581 2.53499ZM4.49622 9.27105C4.49622 14.2652 8.54482 18.3138 13.539 18.3138V22.3138C6.33569 22.3138 0.496225 16.4744 0.496225 9.27105H4.49622ZM13.539 18.3138C18.5332 18.3138 22.5818 14.2652 22.5818 9.27105H26.5818C26.5818 16.4744 20.7424 22.3138 13.539 22.3138V18.3138ZM22.5818 9.27105C22.5818 6.44469 21.2875 3.92221 19.2517 2.26078L21.7808 -0.838215C24.7075 1.55026 26.5818 5.19255 26.5818 9.27105H22.5818Z"
        fill="white" mask="url(#path-1-inside-1)" />
    <rect x="0.298264" y="25.6571" width="26.6187" height="5.05418" fill="white" />
    <path
        d="M10.9366 10.7982L11.5108 5.73956H17.0889V7.38702H13.1309L12.8848 9.52667C13.3542 9.27602 13.8532 9.1507 14.3819 9.1507C15.3298 9.1507 16.0726 9.44464 16.6104 10.0325C17.1481 10.6204 17.417 11.443 17.417 12.5003C17.417 13.1429 17.2803 13.7194 17.0069 14.2298C16.738 14.7357 16.3506 15.1299 15.8448 15.4124C15.3389 15.6904 14.7419 15.8294 14.0537 15.8294C13.4522 15.8294 12.8939 15.7086 12.3789 15.4671C11.864 15.221 11.4561 14.8769 11.1553 14.4349C10.8591 13.9928 10.7019 13.4892 10.6836 12.9241H12.6387C12.6797 13.3388 12.8233 13.6624 13.0694 13.8948C13.32 14.1227 13.6459 14.2366 14.0469 14.2366C14.4935 14.2366 14.8376 14.0771 15.0791 13.7581C15.3207 13.4345 15.4414 12.9788 15.4414 12.3909C15.4414 11.8258 15.3024 11.3929 15.0244 11.0921C14.7464 10.7913 14.3522 10.6409 13.8418 10.6409C13.3724 10.6409 12.9919 10.764 12.7002 11.0101L12.5088 11.1878L10.9366 10.7982Z"
        fill="white" />
</svg>