<svg class="our-svg" width="30" height="31" viewBox="0 0 30 31" fill="none" xmlns="http://www.w3.org/2000/svg">
  <path
    d="M16.266 12.3204H14.2113L13.8207 13.4923H12.5746L14.6918 7.80478H15.7777L17.9066 13.4923H16.6605L16.266 12.3204ZM14.5277 11.3712H15.9496L15.2347 9.24228L14.5277 11.3712Z"
    fill="white" />
  <circle cx="14.9561" cy="10.3465" r="8.63522" stroke="white" stroke-width="2" />
  <mask id="path-3-inside-1" fill="white">
    <path fill-rule="evenodd" clip-rule="evenodd"
      d="M6.74761 17.0851L0.51593 27.8787L4.55531 26.5475L5.42216 30.7113L11.4005 20.3566C9.56437 19.7043 7.9608 18.5612 6.74761 17.0851ZM18.706 20.2854L24.7254 30.7113L25.5922 26.5475L29.6316 27.8787L23.3016 16.9149C22.1152 18.4202 20.5303 19.5968 18.706 20.2854Z" />
  </mask>
  <path
    d="M0.51593 27.8787L-2.08215 26.3787L-6.01435 33.1895L1.45491 30.728L0.51593 27.8787ZM6.74761 17.0851L9.06527 15.1803L6.31515 11.8342L4.14953 15.5851L6.74761 17.0851ZM4.55531 26.5475L7.49234 25.9361L6.80751 22.6466L3.61633 23.6983L4.55531 26.5475ZM5.42216 30.7113L2.48514 31.3228L4.08804 39.0221L8.02024 32.2113L5.42216 30.7113ZM11.4005 20.3566L13.9986 21.8566L15.8003 18.7358L12.4047 17.5296L11.4005 20.3566ZM18.706 20.2854L17.6465 17.4787L14.3417 18.7262L16.1079 21.7854L18.706 20.2854ZM24.7254 30.7113L22.1273 32.2113L26.0595 39.0221L27.6624 31.3228L24.7254 30.7113ZM25.5922 26.5475L26.5312 23.6983L23.34 22.6466L22.6552 25.9361L25.5922 26.5475ZM29.6316 27.8787L28.6926 30.728L36.1619 33.1895L32.2297 26.3787L29.6316 27.8787ZM23.3016 16.9149L25.8997 15.4149L23.686 11.5807L20.9455 15.0579L23.3016 16.9149ZM3.11401 29.3787L9.34568 18.5851L4.14953 15.5851L-2.08215 26.3787L3.11401 29.3787ZM3.61633 23.6983L-0.423051 25.0294L1.45491 30.728L5.49429 29.3968L3.61633 23.6983ZM8.35919 30.0999L7.49234 25.9361L1.61829 27.159L2.48514 31.3228L8.35919 30.0999ZM8.80241 18.8566L2.82409 29.2113L8.02024 32.2113L13.9986 21.8566L8.80241 18.8566ZM12.4047 17.5296C11.0913 17.0631 9.93881 16.2431 9.06527 15.1803L4.42995 18.99C5.98279 20.8793 8.03745 22.3456 10.3963 23.1835L12.4047 17.5296ZM16.1079 21.7854L22.1273 32.2113L27.3234 29.2113L21.304 18.7854L16.1079 21.7854ZM27.6624 31.3228L28.5292 27.159L22.6552 25.9361L21.7883 30.0999L27.6624 31.3228ZM24.6532 29.3968L28.6926 30.728L30.5706 25.0294L26.5312 23.6983L24.6532 29.3968ZM32.2297 26.3787L25.8997 15.4149L20.7036 18.4149L27.0335 29.3787L32.2297 26.3787ZM20.9455 15.0579C20.0913 16.1416 18.952 16.9859 17.6465 17.4787L19.7654 23.0921C22.1087 22.2076 24.1391 20.6988 25.6578 18.7719L20.9455 15.0579Z"
    fill="white" mask="url(#path-3-inside-1)" />
</svg>