<svg width="13" height="13" viewBox="0 0 13 13" fill="none" xmlns="http://www.w3.org/2000/svg">
    <path
        d="M5.24435 1.17131C5.62687 0.492663 6.60414 0.492663 6.98666 1.17131L8.22162 3.36236C8.36432 3.61554 8.61011 3.79411 8.89499 3.85159L11.3604 4.34904C12.1241 4.50312 12.4261 5.43256 11.8988 6.00607L10.1966 7.85767C9.99996 8.07162 9.90607 8.36055 9.93944 8.64926L10.2282 11.1478C10.3176 11.9216 9.527 12.496 8.81865 12.1719L6.53167 11.1251C6.26741 11.0042 5.9636 11.0042 5.69934 11.1251L3.41236 12.1719C2.70401 12.496 1.91337 11.9216 2.00281 11.1478L2.29157 8.64926C2.32494 8.36055 2.23105 8.07162 2.03437 7.85767L0.332178 6.00607C-0.195049 5.43257 0.106946 4.50312 0.870578 4.34904L3.33602 3.85159C3.6209 3.79411 3.86669 3.61554 4.00939 3.36236L5.24435 1.17131Z"
        fill="#FF9900" />
</svg>